<?xml version="1.0" encoding="UTF-8" standalone="no"?>
<svg
   viewBox="0 0 1024 1024"
   width="1024"
   height="1024"
   version="1.1"
   id="svg70"
   sodipodi:docname="logo5.svg"
   inkscape:version="1.4.3 (0d15f75, 2025-12-25)"
   xmlns:inkscape="http://www.inkscape.org/namespaces/inkscape"
   xmlns:sodipodi="http://sodipodi.sourceforge.net/DTD/sodipodi-0.dtd"
   xmlns="http://www.w3.org/2000/svg"
   xmlns:svg="http://www.w3.org/2000/svg">
  <defs
     id="defs70" />
  <sodipodi:namedview
     id="namedview70"
     pagecolor="#ffffff"
     bordercolor="#000000"
     borderopacity="0.25"
     inkscape:showpageshadow="2"
     inkscape:pageopacity="0.0"
     inkscape:pagecheckerboard="0"
     inkscape:deskcolor="#d1d1d1"
     inkscape:zoom="1.1396484"
     inkscape:cx="511.56127"
     inkscape:cy="371.60583"
     inkscape:window-width="2560"
     inkscape:window-height="1369"
     inkscape:window-x="-8"
     inkscape:window-y="-8"
     inkscape:window-maximized="1"
     inkscape:current-layer="svg70" />
  <g
     fill="None"
     fill-opacity="0"
     stroke="#f68600"
     stroke-opacity="1"
     stroke-width="0.3"
     id="g1"
     transform="matrix(0.80981535,0,0,0.86294772,78.070344,64.02851)">
    <path
       d="M 0,1024 H 1024 V 0 H 0 V 1024 M 459,155 c 2.83,19.39 2,39.9 2,60 0.17,1.2 0.93,3.19 1,5 3.43,23.63 1.62,50.37 1,75 -0.62,24.63 3.52,52.55 0,77 7.94,-5.04 14.93,-9.4 24,-12 14.46,-7.07 39.53,-4.52 54.69,2.31 15.17,6.82 25.16,17.9 33.31,31.69 1.26,-0.23 3.27,-2.69 4,-1 0.26,-0.25 0.75,-0.74 1,-1 10.04,-10.48 30.25,-6.69 43.01,-5.01 12.75,1.69 26.14,7.09 35.74,16.26 9.6,9.17 17.22,20.15 20.25,32.75 3.66,0.48 7.98,-3.64 11,-1 0.48,-0.09 1,0 1,0 1.49,-5.58 25.42,-1.01 27,1 0.43,0.14 1.21,0.8 2,1 9.87,-0.55 25.15,8.91 31.75,17.25 6.61,8.33 19.13,24.49 14.25,34.75 0.01,0.5 -0.06,1.51 0,2 6.01,4.82 1.77,20.1 3,29 1.23,8.9 -0.64,22.26 0,32 0.64,9.74 -0.48,22.03 0,32 -2.18,-3.09 -0.43,-8.16 -1,-12 0,0.04 -1,0 -1,0 0,4.67 0,9.33 0,14 0.57,5.89 1.17,13.46 1,20 -0.17,6.55 -0.41,14.69 0,21 0.41,6.31 -2.4,14.66 -3,17 -0.57,7.14 -2.47,14.97 -2,22 0.03,0.5 0,1 0,1 -3.12,5.46 -2.8,15.77 -4,22 -0.5,13.41 -5.65,28.69 -9.98,42.02 -4.32,13.34 -12.04,23.71 -17.94,36.06 -5.9,12.35 -17.59,19.05 -23.83,31.17 -6.25,12.12 1.22,35.04 -0.25,49.75 -1.47,14.71 3.33,38.67 2,53 -1.33,14.33 7.58,37.14 -10.08,41.92 -17.65,4.79 -35.86,-0.44 -53.92,1.08 -18.06,1.52 -35.89,-0.77 -54,0 -18.11,0.77 -35.78,-0.54 -54,0 -18.22,0.54 -36.63,-0.66 -55,0 -18.37,0.66 -35.35,-1.25 -54,0 -18.65,1.25 -35.77,-2.62 -55,0 -19.23,2.62 -28.64,-10.45 -25,-29 3.64,-18.55 -0.96,-33.74 4,-51 0,-0.5 0,-1.5 0,-2 -4.01,-9.43 1.02,-20.81 0,-31 -1.02,-10.19 1.25,-22.18 3,-31 0.1,-1.73 0.41,-4.32 0,-6 -1.82,-4.81 -11.41,-5.39 -14.75,-10.25 -3.35,-4.86 -9.64,-5.56 -13.5,-11.5 -3.86,-5.95 -7.79,-5.25 -12.5,-12.5 C 309.54,752.5 292.51,741.18 293,733 c -0.22,-0.3 -0.68,-0.81 -1,-1 -8.44,-5.03 -13.03,-19.77 -17.77,-28.23 -4.75,-8.46 -11.17,-24.72 -10.23,-33.77 -0.13,-0.51 -0.96,-1.83 -1,-2 -6.75,-6.15 -2.32,-29.56 -3,-41 -0.68,-11.44 5.91,-26.28 9.77,-37.23 3.87,-10.95 9.9,-19.31 16.53,-29.47 6.63,-10.16 19,-14.97 17.7,-29.3 -1.3,-14.33 0.6,-32.03 0,-47 -0.6,-14.97 0.26,-30.7 0,-46 -0.26,-15.3 0.12,-31.53 0,-47 -0.12,-15.47 0.06,-31.5 0,-47 -0.06,-15.5 0.03,-30.46 0,-46 -0.03,-15.54 0.01,-31.4 0,-47 -0.01,-15.6 0.01,-31.38 0,-47 2.19,3.09 0.43,8.16 1,12 0.49,-5.04 1,-11.27 1,-17 -4.32,-44.65 11.68,-95.27 57.22,-111.78 45.55,-16.5 95.1,23.06 95.78,67.78 z"
       id="path1" />
  </g>
  <g
     fill="None"
     fill-opacity="0.0"
     stroke="#EC9B05"
     stroke-opacity="1.00"
     stroke-width="0.3"
     id="g2">
    <path
       d=" M 306.00 199.00  C 306.00 154.55 316.87 104.78 363.69 88.69 C 410.52 72.61 452.47 110.30 459.00 155.00 C 458.32 110.28 408.77 70.72 363.22 87.22 C 317.68 103.73 301.68 154.35 306.00 199.00 Z"
       id="path2" />
  </g>
  <g
     fill="None"
     fill-opacity="0.0"
     stroke="#070C1F"
     stroke-opacity="1.00"
     stroke-width="0.3"
     id="g3">
    <path
       d=" M 306.00 199.00  C 306.00 204.73 305.49 210.96 305.00 216.00 C 305.00 236.64 304.93 257.36 305.00 278.00 C 305.07 298.64 304.83 319.39 305.00 340.00 C 305.17 360.61 304.60 381.46 305.00 402.00 C 305.40 422.54 304.13 444.71 305.00 465.00 C 305.87 485.29 303.03 507.34 305.00 527.00 C 306.97 546.66 292.10 552.56 283.23 567.23 C 274.36 581.90 267.48 593.05 264.22 610.22 C 260.96 627.39 259.20 650.30 263.00 668.00 C 263.04 668.17 263.87 669.49 264.00 670.00 C 269.87 693.05 281.74 711.02 292.00 732.00 C 292.32 732.19 292.78 732.70 293.00 733.00 C 299.46 741.80 308.44 756.10 318.00 762.00 C 318.32 762.20 318.80 762.68 319.00 763.00 C 320.80 765.91 324.15 769.24 327.00 771.00 C 327.32 771.20 327.73 771.79 328.00 772.00 C 332.33 774.68 337.63 779.41 341.23 782.77 C 344.83 786.13 353.92 789.63 355.00 794.00 C 355.41 795.68 355.10 798.27 355.00 800.00 C 353.82 820.40 352.00 841.52 352.00 862.00 C 352.00 862.50 352.00 863.50 352.00 864.00 C 352.00 879.65 351.56 896.29 350.00 912.00 C 348.44 927.71 348.98 943.84 368.00 942.00 C 387.02 940.16 400.25 942.82 418.00 942.00 C 435.75 941.18 451.87 942.39 469.00 942.00 C 486.13 941.61 502.31 942.20 519.00 942.00 C 535.69 941.80 552.75 942.15 569.00 942.00 C 585.25 941.85 603.45 942.19 619.00 942.00 C 634.55 941.81 655.96 942.35 670.00 942.00 C 684.04 941.65 705.60 946.61 708.77 930.77 C 711.94 914.93 705.78 898.61 707.00 883.00 C 708.22 867.39 704.67 849.96 705.01 834.99 C 705.35 820.03 700.44 802.18 710.92 791.92 C 721.40 781.66 724.29 773.99 731.92 762.92 C 739.56 751.86 743.19 741.38 747.98 728.98 C 752.76 716.57 756.45 702.22 759.00 689.00 C 760.20 682.77 759.88 672.46 763.00 667.00 C 757.00 669.77 759.35 686.67 756.67 693.67 C 753.99 700.68 752.40 712.77 749.22 720.22 C 746.05 727.68 744.39 738.22 740.22 745.22 C 736.06 752.23 732.74 760.72 728.23 767.23 C 723.71 773.73 718.00 780.86 713.75 786.75 C 709.50 792.65 702.12 794.61 702.33 804.67 C 702.54 814.73 703.83 826.52 704.00 837.00 C 704.17 847.48 704.74 859.47 705.00 870.00 C 705.26 880.53 706.98 892.43 706.00 903.00 C 705.02 913.57 710.42 924.63 705.23 934.23 C 700.04 943.83 688.17 940.60 678.00 941.00 C 667.83 941.40 654.81 940.81 644.00 941.00 C 633.19 941.19 621.09 940.89 610.00 941.00 C 598.91 941.11 587.22 940.90 576.00 941.00 C 564.78 941.10 553.26 940.84 542.00 941.00 C 530.74 941.16 520.72 940.52 509.98 940.98 C 499.24 941.44 486.97 940.76 476.00 941.00 C 465.03 941.24 452.96 940.80 442.00 941.00 C 431.04 941.20 418.70 940.69 408.00 941.00 C 397.30 941.31 384.03 940.38 374.00 941.00 C 363.97 941.62 351.90 941.34 350.68 930.32 C 349.46 919.31 352.16 910.11 352.00 899.00 C 351.84 887.89 352.94 877.03 353.00 866.00 C 353.06 854.97 354.47 844.95 355.00 834.00 C 355.53 823.05 354.44 811.81 356.00 801.00 C 357.56 790.19 348.35 786.78 341.75 781.25 C 335.16 775.72 328.63 771.77 323.25 765.75 C 317.87 759.74 313.63 755.91 307.75 749.25 C 301.87 742.59 297.76 737.23 292.75 730.25 C 287.74 723.27 284.25 716.47 280.23 708.77 C 276.21 701.07 272.94 693.48 270.02 684.98 C 267.11 676.47 264.14 667.29 263.22 657.78 C 262.30 648.27 262.81 634.11 263.78 624.78 C 264.75 615.45 266.20 605.80 269.32 597.32 C 272.44 588.84 275.88 582.10 280.31 574.31 C 284.73 566.51 288.70 563.43 293.75 555.75 C 298.80 548.07 307.78 545.51 307.00 535.00 C 306.22 524.49 307.35 511.96 307.00 501.00 C 306.65 490.04 307.16 478.16 307.00 467.00 C 306.84 455.84 307.08 444.26 307.00 433.00 C 306.92 421.74 307.04 410.30 307.00 399.00 C 306.96 387.70 307.03 376.31 307.00 365.00 C 306.97 353.69 307.05 342.31 307.00 331.00 C 306.95 319.69 307.09 308.30 307.00 297.00 C 306.91 285.70 307.20 274.26 307.00 263.00 C 306.80 251.74 307.44 240.17 307.00 229.00 C 306.56 217.83 307.57 206.69 308.00 196.00 C 308.42 185.30 308.11 173.71 309.78 163.78 C 311.45 153.85 313.02 145.65 316.78 136.78 C 320.53 127.90 323.68 123.04 328.31 116.30 C 332.94 109.56 338.97 104.56 345.70 99.70 C 352.42 94.84 360.31 90.78 369.01 89.01 C 377.71 87.23 390.94 85.75 400.01 87.99 C 409.08 90.23 415.51 93.02 422.70 97.31 C 429.88 101.59 434.88 106.88 440.25 113.75 C 445.61 120.62 449.33 127.13 452.31 135.69 C 455.28 144.26 458.12 153.07 458.93 163.07 C 459.74 173.08 458.65 186.31 459.00 197.00 C 459.35 207.69 460.22 218.85 460.00 230.00 C 459.78 241.15 460.17 252.64 460.00 264.00 C 459.83 275.36 460.23 286.40 460.00 298.00 C 459.77 309.60 460.44 319.98 460.00 332.00 C 459.56 344.02 460.95 353.10 460.00 366.00 C 459.05 378.90 468.20 370.95 476.08 366.08 C 483.96 361.21 493.37 359.32 503.00 359.00 C 512.63 358.68 524.67 359.87 533.22 362.78 C 541.78 365.69 550.34 367.39 554.00 376.00 C 566.42 374.14 567.88 402.67 580.25 394.25 C 592.61 385.82 610.14 388.02 624.01 389.99 C 637.88 391.96 648.79 398.11 657.19 407.25 C 665.60 416.38 676.65 425.79 677.00 440.00 C 678.39 439.74 677.78 437.95 678.00 437.00 C 672.87 418.00 661.84 404.46 643.77 394.23 C 625.70 384.00 599.29 386.80 580.00 392.00 C 579.75 392.26 579.26 392.75 579.00 393.00 C 577.93 394.03 576.40 395.21 575.00 396.00 C 559.12 364.28 520.04 350.28 487.00 360.00 C 477.93 362.60 470.94 366.96 463.00 372.00 C 462.73 372.17 462.31 372.80 462.00 373.00 C 462.00 373.00 460.36 359.99 461.00 355.00 C 461.64 350.01 460.71 340.10 461.00 334.00 C 461.29 327.90 460.87 319.60 461.00 313.00 C 461.13 306.40 460.94 298.84 461.00 292.00 C 461.06 285.16 460.98 277.98 461.00 271.00 C 461.03 264.02 460.99 257.10 461.00 250.00 C 461.01 242.90 461.00 235.16 461.00 228.00 C 461.00 223.67 461.00 219.33 461.00 215.00 C 461.00 194.90 461.83 174.39 459.00 155.00 C 452.47 110.30 410.52 72.61 363.69 88.69 C 316.87 104.78 306.00 154.55 306.00 199.00 Z"
       id="path3" />
  </g>
  <g
     fill="None"
     fill-opacity="0.0"
     stroke="#101316"
     stroke-opacity="1.00"
     stroke-width="0.3"
     id="g4">
    <path
       d=" M 763.00 667.00  C 763.00 667.00 763.03 666.50 763.00 666.00 C 758.61 664.56 764.44 649.68 764.00 643.00 C 763.56 636.32 765.97 623.23 765.00 615.00 C 764.03 606.77 766.41 596.82 766.00 588.00 C 765.59 579.18 766.25 568.02 766.00 559.00 C 765.75 549.98 766.26 539.90 766.00 531.00 C 765.74 522.10 766.44 510.41 766.00 502.00 C 765.56 493.59 764.37 484.98 762.07 477.93 C 759.77 470.87 757.37 462.85 752.00 463.00 C 750.75 450.59 733.11 443.34 722.78 439.22 C 712.44 435.11 708.25 437.66 699.00 436.00 C 689.75 434.34 684.02 441.12 679.00 438.00 C 678.86 437.65 678.06 437.24 678.00 437.00 C 677.78 437.95 678.39 439.74 677.00 440.00 C 676.65 425.79 665.60 416.38 657.19 407.25 C 648.79 398.11 637.88 391.96 624.01 389.99 C 610.14 388.02 592.61 385.82 580.25 394.25 C 567.88 402.67 566.42 374.14 554.00 376.00 C 550.34 367.39 541.78 365.69 533.22 362.78 C 524.67 359.87 512.63 358.68 503.00 359.00 C 493.37 359.32 483.96 361.21 476.08 366.08 C 468.20 370.95 459.05 378.90 460.00 366.00 C 460.95 353.10 459.56 344.02 460.00 332.00 C 460.44 319.98 459.77 309.60 460.00 298.00 C 460.23 286.40 459.83 275.36 460.00 264.00 C 460.17 252.64 459.78 241.15 460.00 230.00 C 460.22 218.85 459.35 207.69 459.00 197.00 C 458.65 186.31 459.74 173.08 458.93 163.07 C 458.12 153.07 455.28 144.26 452.31 135.69 C 449.33 127.13 445.61 120.62 440.25 113.75 C 434.88 106.88 429.88 101.59 422.70 97.31 C 415.51 93.02 409.08 90.23 400.01 87.99 C 390.94 85.75 377.71 87.23 369.01 89.01 C 360.31 90.78 352.42 94.84 345.70 99.70 C 338.97 104.56 332.94 109.56 328.31 116.30 C 323.68 123.04 320.53 127.90 316.78 136.78 C 313.02 145.65 311.45 153.85 309.78 163.78 C 308.11 173.71 308.42 185.30 308.00 196.00 C 307.57 206.69 306.56 217.83 307.00 229.00 C 307.44 240.17 306.80 251.74 307.00 263.00 C 307.20 274.26 306.91 285.70 307.00 297.00 C 307.09 308.30 306.95 319.69 307.00 331.00 C 307.05 342.31 306.97 353.69 307.00 365.00 C 307.03 376.31 306.96 387.70 307.00 399.00 C 307.04 410.30 306.92 421.74 307.00 433.00 C 307.08 444.26 306.84 455.84 307.00 467.00 C 307.16 478.16 306.65 490.04 307.00 501.00 C 307.35 511.96 306.22 524.49 307.00 535.00 C 307.78 545.51 298.80 548.07 293.75 555.75 C 288.70 563.43 284.73 566.51 280.31 574.31 C 275.88 582.10 272.44 588.84 269.32 597.32 C 266.20 605.80 264.75 615.45 263.78 624.78 C 262.81 634.11 262.30 648.27 263.22 657.78 C 264.14 667.29 267.11 676.47 270.02 684.98 C 272.94 693.48 276.21 701.07 280.23 708.77 C 284.25 716.47 287.74 723.27 292.75 730.25 C 297.76 737.23 301.87 742.59 307.75 749.25 C 313.63 755.91 317.87 759.74 323.25 765.75 C 328.63 771.77 335.16 775.72 341.75 781.25 C 348.35 786.78 357.56 790.19 356.00 801.00 C 354.44 811.81 355.53 823.05 355.00 834.00 C 354.47 844.95 353.06 854.97 353.00 866.00 C 352.94 877.03 351.84 887.89 352.00 899.00 C 352.16 910.11 349.46 919.31 350.68 930.32 C 351.90 941.34 363.97 941.62 374.00 941.00 C 384.03 940.38 397.30 941.31 408.00 941.00 C 418.70 940.69 431.04 941.20 442.00 941.00 C 452.96 940.80 465.03 941.24 476.00 941.00 C 486.97 940.76 499.24 941.44 509.98 940.98 C 520.72 940.52 530.74 941.16 542.00 941.00 C 553.26 940.84 564.78 941.10 576.00 941.00 C 587.22 940.90 598.91 941.11 610.00 941.00 C 621.09 940.89 633.19 941.19 644.00 941.00 C 654.81 940.81 667.83 941.40 678.00 941.00 C 688.17 940.60 700.04 943.83 705.23 934.23 C 710.42 924.63 705.02 913.57 706.00 903.00 C 706.98 892.43 705.26 880.53 705.00 870.00 C 704.74 859.47 704.17 847.48 704.00 837.00 C 703.83 826.52 702.54 814.73 702.33 804.67 C 702.12 794.61 709.50 792.65 713.75 786.75 C 718.00 780.86 723.71 773.73 728.23 767.23 C 732.74 760.72 736.06 752.23 740.22 745.22 C 744.39 738.22 746.05 727.68 749.22 720.22 C 752.40 712.77 753.99 700.68 756.67 693.67 C 759.35 686.67 757.00 669.77 763.00 667.00 M 439.00 239.00  C 439.00 262.33 439.00 285.67 439.00 309.00 C 439.00 318.00 439.00 327.00 439.00 336.00 C 439.00 341.33 439.00 346.67 439.00 352.00 C 439.00 396.19 435.92 437.48 430.00 480.00 C 392.28 482.12 359.59 502.45 328.00 521.00 C 328.17 478.39 327.77 432.26 328.00 390.00 C 328.23 347.74 327.56 299.97 328.00 259.00 C 328.44 218.03 324.46 173.85 338.77 138.77 C 353.08 103.69 397.67 96.71 421.75 125.25 C 445.84 153.78 437.78 202.65 439.00 239.00 M 488.00 591.00  C 505.93 573.10 516.71 546.51 509.07 521.93 C 501.44 497.34 476.70 484.60 453.00 481.00 C 455.78 450.50 455.19 407.80 480.75 387.75 C 506.31 367.70 558.03 383.46 557.99 417.01 C 557.96 450.56 543.82 488.66 539.67 520.67 C 535.52 552.69 526.20 590.88 488.00 591.00 M 618.00 409.00  C 633.43 411.20 650.68 421.24 656.31 437.69 C 661.93 454.15 654.81 478.00 651.02 495.02 C 647.24 512.04 643.38 533.31 639.01 550.01 C 634.64 566.71 632.16 585.20 616.92 595.92 C 601.68 606.64 583.07 608.72 565.77 598.23 C 548.47 587.74 550.53 567.16 554.99 548.99 C 559.45 530.82 563.75 513.41 566.98 493.98 C 570.20 474.54 576.61 457.66 577.33 436.33 C 578.05 415.00 596.12 405.87 618.00 409.00 M 709.00 457.00  C 723.02 459.00 734.96 468.02 741.31 481.70 C 747.65 495.37 743.93 515.02 739.07 529.07 C 734.22 543.13 731.15 559.77 727.01 574.01 C 722.86 588.25 721.33 602.74 707.92 611.92 C 694.50 621.10 679.00 623.22 663.92 615.08 C 648.83 606.94 648.97 588.91 653.99 573.99 C 659.02 559.08 662.66 544.84 665.93 528.93 C 669.19 513.01 675.14 499.36 676.00 482.00 C 676.85 464.63 689.97 454.28 709.00 457.00 M 443.00 620.00  C 452.56 617.24 461.26 607.58 472.00 611.00 C 482.74 614.41 496.98 613.52 507.22 610.22 C 517.46 606.92 526.51 603.74 534.00 596.00 C 554.27 630.06 602.28 634.66 633.00 613.00 C 645.38 639.13 676.29 646.87 703.07 640.07 C 729.85 633.27 742.90 603.79 744.00 578.00 C 746.71 591.75 744.26 607.92 744.02 622.02 C 743.79 636.13 742.10 651.74 740.07 665.07 C 738.05 678.40 736.50 692.68 733.01 705.01 C 729.52 717.34 725.38 728.20 720.22 739.22 C 715.07 750.25 708.67 758.39 702.23 768.23 C 695.79 778.07 686.09 783.37 678.30 791.30 C 670.51 799.24 653.58 798.55 652.03 812.03 C 650.47 825.50 675.82 819.34 682.00 813.00 C 682.91 848.43 683.66 883.95 686.00 919.00 C 581.84 921.33 476.58 919.33 372.00 920.00 C 372.09 881.19 374.30 842.91 374.00 804.00 C 386.36 812.08 393.15 810.02 407.07 816.93 C 420.99 823.83 434.87 807.04 420.92 800.08 C 406.98 793.12 399.60 793.50 387.93 787.07 C 376.25 780.65 368.86 776.14 358.92 769.08 C 348.98 762.02 342.28 755.63 333.75 747.25 C 325.23 738.87 319.03 732.30 312.25 722.75 C 305.47 713.21 299.93 704.05 295.08 692.92 C 290.22 681.80 286.06 668.96 284.67 656.33 C 283.28 643.70 283.51 625.33 286.33 613.33 C 289.15 601.33 294.57 591.00 301.25 581.25 C 307.94 571.51 314.20 563.93 322.75 555.75 C 331.31 547.57 338.02 541.09 347.75 534.75 C 357.48 528.41 367.08 523.15 377.70 517.69 C 388.31 512.24 400.13 507.83 412.01 505.01 C 423.89 502.18 441.69 500.15 454.00 503.00 C 466.31 505.84 474.58 511.19 483.25 520.75 C 491.91 530.31 490.02 547.00 484.69 557.70 C 479.37 568.39 472.09 574.04 463.25 582.25 C 454.41 590.46 442.69 593.22 431.93 597.93 C 421.16 602.63 402.21 596.58 393.75 606.75 C 385.30 616.93 404.27 626.75 413.23 629.77 C 422.19 632.80 433.52 641.90 441.75 648.25 C 449.99 654.60 458.42 663.27 465.92 671.08 C 473.42 678.89 478.49 689.93 484.77 698.23 C 491.05 706.53 489.44 725.56 503.22 726.78 C 517.01 728.00 512.98 704.21 507.08 695.92 C 501.17 687.64 496.23 676.03 489.25 667.75 C 482.26 659.48 476.61 649.28 468.75 641.25 C 460.89 633.22 451.92 625.99 443.00 620.00 Z"
       id="path4" />
  </g>
  <g
     fill="None"
     fill-opacity="0.0"
     stroke="#FEFEFB"
     stroke-opacity="1.00"
     stroke-width="0.3"
     id="g5">
    <path
       d=" M 439.00 352.00  C 438.54 347.29 438.00 341.40 438.00 336.00 C 438.00 327.00 438.00 318.00 438.00 309.00 C 438.00 285.89 436.84 261.27 439.00 239.00 C 437.78 202.65 445.84 153.78 421.75 125.25 C 397.67 96.71 353.08 103.69 338.77 138.77 C 324.46 173.85 328.44 218.03 328.00 259.00 C 327.56 299.97 328.23 347.74 328.00 390.00 C 327.77 432.26 328.17 478.39 328.00 521.00 C 359.59 502.45 392.28 482.12 430.00 480.00 C 435.92 437.48 439.00 396.19 439.00 352.00 M 363.00 202.00  C 375.46 205.89 370.22 233.35 357.00 229.00 C 343.78 224.65 350.03 197.95 363.00 202.00 M 411.00 202.00  C 423.65 205.21 418.14 233.10 405.00 229.00 C 391.86 224.90 398.27 198.77 411.00 202.00 M 365.00 258.00  C 371.80 259.09 375.34 265.85 384.00 265.00 C 392.66 264.15 396.24 260.57 404.03 258.03 C 411.81 255.48 415.53 268.73 410.69 273.69 C 405.86 278.66 402.10 283.06 394.78 284.78 C 387.46 286.49 378.00 286.50 370.93 284.07 C 363.85 281.65 360.04 278.05 356.08 271.92 C 352.11 265.80 356.77 256.68 365.00 258.00 Z"
       id="path5" />
  </g>
  <g
     fill="None"
     fill-opacity="0.0"
     stroke="#0D1113"
     stroke-opacity="1.00"
     stroke-width="0.3"
     id="g6">
    <path
       d=" M 363.00 202.00  C 350.03 197.95 343.78 224.65 357.00 229.00 C 370.22 233.35 375.46 205.89 363.00 202.00 Z"
       id="path6" />
  </g>
  <g
     fill="None"
     fill-opacity="0.0"
     stroke="#0D1013"
     stroke-opacity="1.00"
     stroke-width="0.3"
     id="g7">
    <path
       d=" M 411.00 202.00  C 398.27 198.77 391.86 224.90 405.00 229.00 C 418.14 233.10 423.65 205.21 411.00 202.00 Z"
       id="path7" />
  </g>
  <g
     fill="None"
     fill-opacity="0.0"
     stroke="#F7A901"
     stroke-opacity="1.00"
     stroke-width="0.3"
     id="g8">
    <path
       d=" M 263.00 668.00  C 259.20 650.30 260.96 627.39 264.22 610.22 C 267.48 593.05 274.36 581.90 283.23 567.23 C 292.10 552.56 306.97 546.66 305.00 527.00 C 303.03 507.34 305.87 485.29 305.00 465.00 C 304.13 444.71 305.40 422.54 305.00 402.00 C 304.60 381.46 305.17 360.61 305.00 340.00 C 304.83 319.39 305.07 298.64 305.00 278.00 C 304.93 257.36 305.00 236.64 305.00 216.00 C 304.43 212.16 306.19 207.09 304.00 204.00 C 304.01 219.62 303.99 235.40 304.00 251.00 C 304.01 266.60 303.97 282.46 304.00 298.00 C 304.03 313.54 303.94 328.50 304.00 344.00 C 304.06 359.50 303.88 375.53 304.00 391.00 C 304.12 406.47 303.74 422.70 304.00 438.00 C 304.26 453.30 303.40 469.03 304.00 484.00 C 304.60 498.97 302.70 516.67 304.00 531.00 C 305.30 545.33 292.93 550.14 286.30 560.30 C 279.67 570.46 273.64 578.82 269.77 589.77 C 265.91 600.72 259.32 615.56 260.00 627.00 C 260.68 638.44 256.25 661.85 263.00 668.00 Z"
       id="path8" />
  </g>
  <g
     fill="None"
     fill-opacity="0.0"
     stroke="#A05C0A"
     stroke-opacity="1.00"
     stroke-width="0.3"
     id="g9">
    <path
       d=" M 461.00 228.00  C 461.00 227.96 462.00 228.00 462.00 228.00 C 462.00 225.34 462.11 222.66 462.00 220.00 C 461.93 218.19 461.17 216.20 461.00 215.00 C 461.00 219.33 461.00 223.67 461.00 228.00 Z"
       id="path9" />
  </g>
  <g
     fill="None"
     fill-opacity="0.0"
     stroke="#FEB300"
     stroke-opacity="1.00"
     stroke-width="0.3"
     id="g10">
    <path
       d=" M 462.00 228.00  C 462.00 239.93 461.73 252.10 462.00 264.00 C 462.27 275.90 461.29 288.18 462.00 300.00 C 462.71 311.82 460.36 324.40 462.00 336.00 C 463.64 347.60 458.46 361.95 462.00 373.00 C 462.31 372.80 462.73 372.17 463.00 372.00 C 466.52 347.55 462.38 319.63 463.00 295.00 C 463.62 270.37 465.43 243.63 462.00 220.00 C 462.11 222.66 462.00 225.34 462.00 228.00 Z"
       id="path10" />
  </g>
  <g
     fill="None"
     fill-opacity="0.0"
     stroke="#5B3510"
     stroke-opacity="1.00"
     stroke-width="0.3"
     id="g11">
    <path
       d=" M 462.00 373.00  C 458.46 361.95 463.64 347.60 462.00 336.00 C 460.36 324.40 462.71 311.82 462.00 300.00 C 461.29 288.18 462.27 275.90 462.00 264.00 C 461.73 252.10 462.00 239.93 462.00 228.00 C 462.00 228.00 461.00 227.96 461.00 228.00 C 461.00 235.16 461.01 242.90 461.00 250.00 C 460.99 257.10 461.03 264.02 461.00 271.00 C 460.98 277.98 461.06 285.16 461.00 292.00 C 460.94 298.84 461.13 306.40 461.00 313.00 C 460.87 319.60 461.29 327.90 461.00 334.00 C 460.71 340.10 461.64 350.01 461.00 355.00 C 460.36 359.99 462.00 373.00 462.00 373.00 Z"
       id="path11" />
  </g>
  <g
     fill="None"
     fill-opacity="0.0"
     stroke="#919291"
     stroke-opacity="1.00"
     stroke-width="0.3"
     id="g12">
    <path
       d=" M 438.00 309.00  C 438.00 308.96 439.00 309.00 439.00 309.00 C 439.00 285.67 439.00 262.33 439.00 239.00 C 436.84 261.27 438.00 285.89 438.00 309.00 Z"
       id="path12" />
  </g>
  <g
     fill="None"
     fill-opacity="0.0"
     stroke="#0F1215"
     stroke-opacity="1.00"
     stroke-width="0.3"
     id="g13">
    <path
       d=" M 365.00 258.00  C 356.77 256.68 352.11 265.80 356.08 271.92 C 360.04 278.05 363.85 281.65 370.93 284.07 C 378.00 286.50 387.46 286.49 394.78 284.78 C 402.10 283.06 405.86 278.66 410.69 273.69 C 415.53 268.73 411.81 255.48 404.03 258.03 C 396.24 260.57 392.66 264.15 384.00 265.00 C 375.34 265.85 371.80 259.09 365.00 258.00 Z"
       id="path13" />
  </g>
  <g
     fill="None"
     fill-opacity="0.0"
     stroke="#727372"
     stroke-opacity="1.00"
     stroke-width="0.3"
     id="g14">
    <path
       d=" M 438.00 336.00  C 438.00 335.96 439.00 336.00 439.00 336.00 C 439.00 327.00 439.00 318.00 439.00 309.00 C 439.00 309.00 438.00 308.96 438.00 309.00 C 438.00 318.00 438.00 327.00 438.00 336.00 Z"
       id="path14" />
  </g>
  <g
     fill="None"
     fill-opacity="0.0"
     stroke="#91918F"
     stroke-opacity="1.00"
     stroke-width="0.3"
     id="g15">
    <path
       d=" M 439.00 352.00  C 439.00 346.67 439.00 341.33 439.00 336.00 C 439.00 336.00 438.00 335.96 438.00 336.00 C 438.00 341.40 438.54 347.29 439.00 352.00 Z"
       id="path15" />
  </g>
  <g
     fill="None"
     fill-opacity="0.0"
     stroke="#ED9E04"
     stroke-opacity="1.00"
     stroke-width="0.3"
     id="g16">
    <path
       d=" M 487.00 360.00  C 520.04 350.28 559.12 364.28 575.00 396.00 C 576.40 395.21 577.93 394.03 579.00 393.00 C 578.27 391.31 576.26 393.77 575.00 394.00 C 566.85 380.21 556.86 369.13 541.69 362.31 C 526.53 355.48 501.46 352.93 487.00 360.00 Z"
       id="path16" />
  </g>
  <g
     fill="None"
     fill-opacity="0.0"
     stroke="#FDFDFA"
     stroke-opacity="1.00"
     stroke-width="0.3"
     id="g17">
    <path
       d=" M 488.00 591.00  C 526.20 590.88 535.52 552.69 539.67 520.67 C 543.82 488.66 557.96 450.56 557.99 417.01 C 558.03 383.46 506.31 367.70 480.75 387.75 C 455.19 407.80 455.78 450.50 453.00 481.00 C 476.70 484.60 501.44 497.34 509.07 521.93 C 516.71 546.51 505.93 573.10 488.00 591.00 Z"
       id="path17" />
  </g>
  <g
     fill="None"
     fill-opacity="0.0"
     stroke="#ED9B04"
     stroke-opacity="1.00"
     stroke-width="0.3"
     id="g18">
    <path
       d=" M 580.00 392.00  C 599.29 386.80 625.70 384.00 643.77 394.23 C 661.84 404.46 672.87 418.00 678.00 437.00 C 678.06 437.24 678.86 437.65 679.00 438.00 C 682.16 438.31 686.77 435.60 690.00 435.00 C 686.98 432.36 682.66 436.48 679.00 436.00 C 675.97 423.40 668.35 412.42 658.75 403.25 C 649.15 394.08 635.76 388.68 623.01 386.99 C 610.25 385.31 590.04 381.52 580.00 392.00 Z"
       id="path18" />
  </g>
  <g
     fill="None"
     fill-opacity="0.0"
     stroke="#FDFDFB"
     stroke-opacity="1.00"
     stroke-width="0.3"
     id="g19">
    <path
       d=" M 618.00 409.00  C 596.12 405.87 578.05 415.00 577.33 436.33 C 576.61 457.66 570.20 474.54 566.98 493.98 C 563.75 513.41 559.45 530.82 554.99 548.99 C 550.53 567.16 548.47 587.74 565.77 598.23 C 583.07 608.72 601.68 606.64 616.92 595.92 C 632.16 585.20 634.64 566.71 639.01 550.01 C 643.38 533.31 647.24 512.04 651.02 495.02 C 654.81 478.00 661.93 454.15 656.31 437.69 C 650.68 421.24 633.43 411.20 618.00 409.00 Z"
       id="path19" />
  </g>
  <g
     fill="None"
     fill-opacity="0.0"
     stroke="#F39F04"
     stroke-opacity="1.00"
     stroke-width="0.3"
     id="g20">
    <path
       d=" M 691.00 435.00  C 698.31 432.41 710.75 433.74 718.00 436.00 C 716.42 433.99 692.49 429.42 691.00 435.00 Z"
       id="path20" />
  </g>
  <g
     fill="None"
     fill-opacity="0.0"
     stroke="#04081E"
     stroke-opacity="1.00"
     stroke-width="0.3"
     id="g21">
    <path
       d=" M 691.00 435.00  C 691.00 435.00 690.48 434.91 690.00 435.00 C 686.77 435.60 682.16 438.31 679.00 438.00 C 684.02 441.12 689.75 434.34 699.00 436.00 C 708.25 437.66 712.44 435.11 722.78 439.22 C 733.11 443.34 750.75 450.59 752.00 463.00 C 757.37 462.85 759.77 470.87 762.07 477.93 C 764.37 484.98 765.56 493.59 766.00 502.00 C 766.44 510.41 765.74 522.10 766.00 531.00 C 766.26 539.90 765.75 549.98 766.00 559.00 C 766.25 568.02 765.59 579.18 766.00 588.00 C 766.41 596.82 764.03 606.77 765.00 615.00 C 765.97 623.23 763.56 636.32 764.00 643.00 C 764.44 649.68 758.61 664.56 763.00 666.00 C 762.53 658.97 764.43 651.14 765.00 644.00 C 765.59 636.54 766.00 628.80 766.00 621.00 C 766.00 617.25 766.71 613.01 767.00 610.00 C 767.00 602.00 767.00 594.00 767.00 586.00 C 767.00 581.33 767.00 576.67 767.00 572.00 C 767.00 554.33 767.00 536.67 767.00 519.00 C 767.00 514.00 767.00 509.00 767.00 504.00 C 767.00 499.38 766.52 495.37 766.00 491.00 C 765.94 490.51 766.01 489.50 766.00 489.00 C 765.35 464.17 742.75 442.83 720.00 437.00 C 719.21 436.80 718.43 436.14 718.00 436.00 C 710.75 433.74 698.31 432.41 691.00 435.00 Z"
       id="path21" />
  </g>
  <g
     fill="None"
     fill-opacity="0.0"
     stroke="#EC9B04"
     stroke-opacity="1.00"
     stroke-width="0.3"
     id="g22">
    <path
       d=" M 720.00 437.00  C 742.75 442.83 765.35 464.17 766.00 489.00 C 770.88 478.74 758.36 462.58 751.75 454.25 C 745.15 445.91 729.87 436.45 720.00 437.00 Z"
       id="path22" />
  </g>
  <g
     fill="None"
     fill-opacity="0.0"
     stroke="#FDFDFB"
     stroke-opacity="1.00"
     stroke-width="0.3"
     id="g23">
    <path
       d=" M 709.00 457.00  C 689.97 454.28 676.85 464.63 676.00 482.00 C 675.14 499.36 669.19 513.01 665.93 528.93 C 662.66 544.84 659.02 559.08 653.99 573.99 C 648.97 588.91 648.83 606.94 663.92 615.08 C 679.00 623.22 694.50 621.10 707.92 611.92 C 721.33 602.74 722.86 588.25 727.01 574.01 C 731.15 559.77 734.22 543.13 739.07 529.07 C 743.93 515.02 747.65 495.37 741.31 481.70 C 734.96 468.02 723.02 459.00 709.00 457.00 Z"
       id="path23" />
  </g>
  <g
     fill="None"
     fill-opacity="0.0"
     stroke="#F9A301"
     stroke-opacity="1.00"
     stroke-width="0.3"
     id="g24">
    <path
       d=" M 767.00 504.00  C 767.42 508.39 768.00 513.93 768.00 519.00 C 768.00 536.67 768.00 554.33 768.00 572.00 C 768.57 575.84 766.82 580.91 769.00 584.00 C 768.52 574.03 769.64 561.74 769.00 552.00 C 768.36 542.26 770.23 528.90 769.00 520.00 C 767.77 511.10 772.01 495.82 766.00 491.00 C 766.52 495.37 767.00 499.38 767.00 504.00 Z"
       id="path24" />
  </g>
  <g
     fill="None"
     fill-opacity="0.0"
     stroke="#FEFEFB"
     stroke-opacity="1.00"
     stroke-width="0.3"
     id="g25">
    <path
       d=" M 443.00 620.00  C 451.92 625.99 460.89 633.22 468.75 641.25 C 476.61 649.28 482.26 659.48 489.25 667.75 C 496.23 676.03 501.17 687.64 507.08 695.92 C 512.98 704.21 517.01 728.00 503.22 726.78 C 489.44 725.56 491.05 706.53 484.77 698.23 C 478.49 689.93 473.42 678.89 465.92 671.08 C 458.42 663.27 449.99 654.60 441.75 648.25 C 433.52 641.90 422.19 632.80 413.23 629.77 C 404.27 626.75 385.30 616.93 393.75 606.75 C 402.21 596.58 421.16 602.63 431.93 597.93 C 442.69 593.22 454.41 590.46 463.25 582.25 C 472.09 574.04 479.37 568.39 484.69 557.70 C 490.02 547.00 491.91 530.31 483.25 520.75 C 474.58 511.19 466.31 505.84 454.00 503.00 C 441.69 500.15 423.89 502.18 412.01 505.01 C 400.13 507.83 388.31 512.24 377.70 517.69 C 367.08 523.15 357.48 528.41 347.75 534.75 C 338.02 541.09 331.31 547.57 322.75 555.75 C 314.20 563.93 307.94 571.51 301.25 581.25 C 294.57 591.00 289.15 601.33 286.33 613.33 C 283.51 625.33 283.28 643.70 284.67 656.33 C 286.06 668.96 290.22 681.80 295.08 692.92 C 299.93 704.05 305.47 713.21 312.25 722.75 C 319.03 732.30 325.23 738.87 333.75 747.25 C 342.28 755.63 348.98 762.02 358.92 769.08 C 368.86 776.14 376.25 780.65 387.93 787.07 C 399.60 793.50 406.98 793.12 420.92 800.08 C 434.87 807.04 420.99 823.83 407.07 816.93 C 393.15 810.02 386.36 812.08 374.00 804.00 C 374.30 842.91 372.09 881.19 372.00 920.00 C 476.58 919.33 581.84 921.33 686.00 919.00 C 683.66 883.95 682.91 848.43 682.00 813.00 C 675.82 819.34 650.47 825.50 652.03 812.03 C 653.58 798.55 670.51 799.24 678.30 791.30 C 686.09 783.37 695.79 778.07 702.23 768.23 C 708.67 758.39 715.07 750.25 720.22 739.22 C 725.38 728.20 729.52 717.34 733.01 705.01 C 736.50 692.68 738.05 678.40 740.07 665.07 C 742.10 651.74 743.79 636.13 744.02 622.02 C 744.26 607.92 746.71 591.75 744.00 578.00 C 742.90 603.79 729.85 633.27 703.07 640.07 C 676.29 646.87 645.38 639.13 633.00 613.00 C 602.28 634.66 554.27 630.06 534.00 596.00 C 526.51 603.74 517.46 606.92 507.22 610.22 C 496.98 613.52 482.74 614.41 472.00 611.00 C 461.26 607.58 452.56 617.24 443.00 620.00 Z"
       id="path25" />
  </g>
  <g
     fill="None"
     fill-opacity="0.0"
     stroke="#CC7604"
     stroke-opacity="1.00"
     stroke-width="0.3"
     id="g26">
    <path
       d=" M 767.00 519.00  C 767.00 518.96 768.00 519.00 768.00 519.00 C 768.00 513.93 767.42 508.39 767.00 504.00 C 767.00 509.00 767.00 514.00 767.00 519.00 Z"
       id="path26" />
  </g>
  <g
     fill="None"
     fill-opacity="0.0"
     stroke="#975608"
     stroke-opacity="1.00"
     stroke-width="0.3"
     id="g27">
    <path
       d=" M 767.00 572.00  C 767.00 572.00 768.00 572.04 768.00 572.00 C 768.00 554.33 768.00 536.67 768.00 519.00 C 768.00 519.00 767.00 518.96 767.00 519.00 C 767.00 536.67 767.00 554.33 767.00 572.00 Z"
       id="path27" />
  </g>
  <g
     fill="None"
     fill-opacity="0.0"
     stroke="#EF9B03"
     stroke-opacity="1.00"
     stroke-width="0.3"
     id="g28">
    <path
       d=" M 767.00 610.00  C 767.00 613.75 766.29 617.99 766.00 621.00 C 766.00 628.80 765.59 636.54 765.00 644.00 C 765.60 641.66 768.41 633.31 768.00 627.00 C 767.59 620.69 767.83 612.55 768.00 606.00 C 768.17 599.46 767.57 591.89 767.00 586.00 C 767.00 594.00 767.00 602.00 767.00 610.00 Z"
       id="path28" />
  </g>
  <g
     fill="None"
     fill-opacity="0.0"
     stroke="#5A3413"
     stroke-opacity="1.00"
     stroke-width="0.3"
     id="g29">
    <path
       d=" M 766.00 621.00  C 766.29 617.99 767.00 613.75 767.00 610.00 C 766.71 613.01 766.00 617.25 766.00 621.00 Z"
       id="path29" />
  </g>
  <g
     fill="None"
     fill-opacity="0.0"
     stroke="#EB9A04"
     stroke-opacity="1.00"
     stroke-width="0.3"
     id="g30">
    <path
       d=" M 292.00 732.00  C 281.74 711.02 269.87 693.05 264.00 670.00 C 263.06 679.05 269.48 695.31 274.23 703.77 C 278.97 712.23 283.56 726.97 292.00 732.00 Z"
       id="path30" />
  </g>
  <g
     fill="None"
     fill-opacity="0.0"
     stroke="#EF9502"
     stroke-opacity="1.00"
     stroke-width="0.3"
     id="g31">
    <path
       d=" M 352.00 864.00  C 347.04 881.26 351.64 896.45 348.00 915.00 C 344.36 933.55 353.77 946.62 373.00 944.00 C 392.23 941.38 409.35 945.25 428.00 944.00 C 446.65 942.75 463.63 944.66 482.00 944.00 C 500.37 943.34 518.78 944.54 537.00 944.00 C 555.22 943.46 572.89 944.77 591.00 944.00 C 609.11 943.23 626.94 945.52 645.00 944.00 C 663.06 942.48 681.27 947.71 698.92 942.92 C 716.58 938.14 707.67 915.33 709.00 901.00 C 710.33 886.67 705.53 862.71 707.00 848.00 C 708.47 833.29 701.00 810.37 707.25 798.25 C 713.49 786.13 725.18 779.43 731.08 767.08 C 736.98 754.73 744.70 744.36 749.02 731.02 C 753.35 717.69 758.50 702.41 759.00 689.00 C 756.45 702.22 752.76 716.57 747.98 728.98 C 743.19 741.38 739.56 751.86 731.92 762.92 C 724.29 773.99 721.40 781.66 710.92 791.92 C 700.44 802.18 705.35 820.03 705.01 834.99 C 704.67 849.96 708.22 867.39 707.00 883.00 C 705.78 898.61 711.94 914.93 708.77 930.77 C 705.60 946.61 684.04 941.65 670.00 942.00 C 655.96 942.35 634.55 941.81 619.00 942.00 C 603.45 942.19 585.25 941.85 569.00 942.00 C 552.75 942.15 535.69 941.80 519.00 942.00 C 502.31 942.20 486.13 941.61 469.00 942.00 C 451.87 942.39 435.75 941.18 418.00 942.00 C 400.25 942.82 387.02 940.16 368.00 942.00 C 348.98 943.84 348.44 927.71 350.00 912.00 C 351.56 896.29 352.00 879.65 352.00 864.00 Z"
       id="path31" />
  </g>
  <g
     fill="None"
     fill-opacity="0.0"
     stroke="#EA9D05"
     stroke-opacity="1.00"
     stroke-width="0.3"
     id="g32">
    <path
       d=" M 355.00 794.00  C 353.92 789.63 344.83 786.13 341.23 782.77 C 337.63 779.41 332.33 774.68 328.00 772.00 C 327.68 771.80 327.27 771.21 327.00 771.00 C 324.15 769.24 320.80 765.91 319.00 763.00 C 318.79 762.73 318.27 762.21 318.00 762.00 C 308.44 756.10 299.46 741.80 293.00 733.00 C 292.51 741.18 309.54 752.50 314.25 759.75 C 318.96 767.00 322.89 766.30 326.75 772.25 C 330.61 778.19 336.90 778.89 340.25 783.75 C 343.59 788.61 353.18 789.19 355.00 794.00 Z"
       id="path32" />
  </g>
  <g
     fill="None"
     fill-opacity="0.0"
     stroke="#3E2516"
     stroke-opacity="1.00"
     stroke-width="0.3"
     id="g33">
    <path
       d=" M 319.00 763.00  C 318.80 762.68 318.32 762.20 318.00 762.00 C 318.27 762.21 318.79 762.73 319.00 763.00 Z"
       id="path33" />
  </g>
  <g
     fill="None"
     fill-opacity="0.0"
     stroke="#A86A05"
     stroke-opacity="1.00"
     stroke-width="0.3"
     id="g34">
    <path
       d=" M 328.00 772.00  C 327.73 771.79 327.32 771.20 327.00 771.00 C 327.27 771.21 327.68 771.80 328.00 772.00 Z"
       id="path34" />
  </g>
  <g
     fill="None"
     fill-opacity="0.0"
     stroke="#EA9704"
     stroke-opacity="1.00"
     stroke-width="0.3"
     id="g35">
    <path
       d=" M 352.00 862.00  C 352.00 841.52 353.82 820.40 355.00 800.00 C 353.25 808.82 350.98 820.81 352.00 831.00 C 353.02 841.19 347.99 852.57 352.00 862.00 Z"
       id="path35" />
  </g>
  <g
     fill="#F68600"
     fill-opacity="1.00"
     stroke="None"
     id="g36"
     style="fill:#f29400;fill-opacity:1"
     transform="matrix(0.82433591,0,0,0.874036,73.706941,57.035133)">
    <path
       d="M 0,1024 H 1024 V 0 H 0 V 1024 M 459,155 c 2.83,19.39 2,39.9 2,60 0.17,1.2 0.93,3.19 1,5 3.43,23.63 1.62,50.37 1,75 -0.62,24.63 3.52,52.55 0,77 7.94,-5.04 14.93,-9.4 24,-12 14.46,-7.07 39.53,-4.52 54.69,2.31 15.17,6.82 25.16,17.9 33.31,31.69 1.26,-0.23 3.27,-2.69 4,-1 0.26,-0.25 0.75,-0.74 1,-1 10.04,-10.48 30.25,-6.69 43.01,-5.01 12.75,1.69 26.14,7.09 35.74,16.26 9.6,9.17 17.22,20.15 20.25,32.75 3.66,0.48 7.98,-3.64 11,-1 0.48,-0.09 1,0 1,0 1.49,-5.58 25.42,-1.01 27,1 0.43,0.14 1.21,0.8 2,1 9.87,-0.55 25.15,8.91 31.75,17.25 6.61,8.33 19.13,24.49 14.25,34.75 0.01,0.5 -0.06,1.51 0,2 6.01,4.82 1.77,20.1 3,29 1.23,8.9 -0.64,22.26 0,32 0.64,9.74 -0.48,22.03 0,32 -2.18,-3.09 -0.43,-8.16 -1,-12 0,0.04 -1,0 -1,0 0,4.67 0,9.33 0,14 0.57,5.89 1.17,13.46 1,20 -0.17,6.55 -0.41,14.69 0,21 0.41,6.31 -2.4,14.66 -3,17 -0.57,7.14 -2.47,14.97 -2,22 0.03,0.5 0,1 0,1 -3.12,5.46 -2.8,15.77 -4,22 -0.5,13.41 -5.65,28.69 -9.98,42.02 -4.32,13.34 -12.04,23.71 -17.94,36.06 -5.9,12.35 -17.59,19.05 -23.83,31.17 -6.25,12.12 1.22,35.04 -0.25,49.75 -1.47,14.71 3.33,38.67 2,53 -1.33,14.33 7.58,37.14 -10.08,41.92 -17.65,4.79 -35.86,-0.44 -53.92,1.08 -18.06,1.52 -35.89,-0.77 -54,0 -18.11,0.77 -35.78,-0.54 -54,0 -18.22,0.54 -36.63,-0.66 -55,0 -18.37,0.66 -35.35,-1.25 -54,0 -18.65,1.25 -35.77,-2.62 -55,0 -19.23,2.62 -28.64,-10.45 -25,-29 3.64,-18.55 -0.96,-33.74 4,-51 0,-0.5 0,-1.5 0,-2 -4.01,-9.43 1.02,-20.81 0,-31 -1.02,-10.19 1.25,-22.18 3,-31 0.1,-1.73 0.41,-4.32 0,-6 -1.82,-4.81 -11.41,-5.39 -14.75,-10.25 -3.35,-4.86 -9.64,-5.56 -13.5,-11.5 -3.86,-5.95 -7.79,-5.25 -12.5,-12.5 C 309.54,752.5 292.51,741.18 293,733 c -0.22,-0.3 -0.68,-0.81 -1,-1 -8.44,-5.03 -13.03,-19.77 -17.77,-28.23 -4.75,-8.46 -11.17,-24.72 -10.23,-33.77 -0.13,-0.51 -0.96,-1.83 -1,-2 -6.75,-6.15 -2.32,-29.56 -3,-41 -0.68,-11.44 5.91,-26.28 9.77,-37.23 3.87,-10.95 9.9,-19.31 16.53,-29.47 6.63,-10.16 19,-14.97 17.7,-29.3 -1.3,-14.33 0.6,-32.03 0,-47 -0.6,-14.97 0.26,-30.7 0,-46 -0.26,-15.3 0.12,-31.53 0,-47 -0.12,-15.47 0.06,-31.5 0,-47 -0.06,-15.5 0.03,-30.46 0,-46 -0.03,-15.54 0.01,-31.4 0,-47 -0.01,-15.6 0.01,-31.38 0,-47 2.19,3.09 0.43,8.16 1,12 0.49,-5.04 1,-11.27 1,-17 -4.32,-44.65 11.68,-95.27 57.22,-111.78 45.55,-16.5 95.1,23.06 95.78,67.78 z"
       id="path36"
       style="fill:#f29400;fill-opacity:1" />
  </g>
  <g
     fill="#EC9B05"
     fill-opacity="1.00"
     stroke="None"
     id="g37">
    <path
       d=" M 306.00 199.00  C 306.00 154.55 316.87 104.78 363.69 88.69 C 410.52 72.61 452.47 110.30 459.00 155.00 C 458.32 110.28 408.77 70.72 363.22 87.22 C 317.68 103.73 301.68 154.35 306.00 199.00 Z"
       id="path37" />
  </g>
  <g
     fill="#070C1F"
     fill-opacity="1.00"
     stroke="None"
     id="g38">
    <path
       d=" M 306.00 199.00  C 306.00 204.73 305.49 210.96 305.00 216.00 C 305.00 236.64 304.93 257.36 305.00 278.00 C 305.07 298.64 304.83 319.39 305.00 340.00 C 305.17 360.61 304.60 381.46 305.00 402.00 C 305.40 422.54 304.13 444.71 305.00 465.00 C 305.87 485.29 303.03 507.34 305.00 527.00 C 306.97 546.66 292.10 552.56 283.23 567.23 C 274.36 581.90 267.48 593.05 264.22 610.22 C 260.96 627.39 259.20 650.30 263.00 668.00 C 263.04 668.17 263.87 669.49 264.00 670.00 C 269.87 693.05 281.74 711.02 292.00 732.00 C 292.32 732.19 292.78 732.70 293.00 733.00 C 299.46 741.80 308.44 756.10 318.00 762.00 C 318.32 762.20 318.80 762.68 319.00 763.00 C 320.80 765.91 324.15 769.24 327.00 771.00 C 327.32 771.20 327.73 771.79 328.00 772.00 C 332.33 774.68 337.63 779.41 341.23 782.77 C 344.83 786.13 353.92 789.63 355.00 794.00 C 355.41 795.68 355.10 798.27 355.00 800.00 C 353.82 820.40 352.00 841.52 352.00 862.00 C 352.00 862.50 352.00 863.50 352.00 864.00 C 352.00 879.65 351.56 896.29 350.00 912.00 C 348.44 927.71 348.98 943.84 368.00 942.00 C 387.02 940.16 400.25 942.82 418.00 942.00 C 435.75 941.18 451.87 942.39 469.00 942.00 C 486.13 941.61 502.31 942.20 519.00 942.00 C 535.69 941.80 552.75 942.15 569.00 942.00 C 585.25 941.85 603.45 942.19 619.00 942.00 C 634.55 941.81 655.96 942.35 670.00 942.00 C 684.04 941.65 705.60 946.61 708.77 930.77 C 711.94 914.93 705.78 898.61 707.00 883.00 C 708.22 867.39 704.67 849.96 705.01 834.99 C 705.35 820.03 700.44 802.18 710.92 791.92 C 721.40 781.66 724.29 773.99 731.92 762.92 C 739.56 751.86 743.19 741.38 747.98 728.98 C 752.76 716.57 756.45 702.22 759.00 689.00 C 760.20 682.77 759.88 672.46 763.00 667.00 C 757.00 669.77 759.35 686.67 756.67 693.67 C 753.99 700.68 752.40 712.77 749.22 720.22 C 746.05 727.68 744.39 738.22 740.22 745.22 C 736.06 752.23 732.74 760.72 728.23 767.23 C 723.71 773.73 718.00 780.86 713.75 786.75 C 709.50 792.65 702.12 794.61 702.33 804.67 C 702.54 814.73 703.83 826.52 704.00 837.00 C 704.17 847.48 704.74 859.47 705.00 870.00 C 705.26 880.53 706.98 892.43 706.00 903.00 C 705.02 913.57 710.42 924.63 705.23 934.23 C 700.04 943.83 688.17 940.60 678.00 941.00 C 667.83 941.40 654.81 940.81 644.00 941.00 C 633.19 941.19 621.09 940.89 610.00 941.00 C 598.91 941.11 587.22 940.90 576.00 941.00 C 564.78 941.10 553.26 940.84 542.00 941.00 C 530.74 941.16 520.72 940.52 509.98 940.98 C 499.24 941.44 486.97 940.76 476.00 941.00 C 465.03 941.24 452.96 940.80 442.00 941.00 C 431.04 941.20 418.70 940.69 408.00 941.00 C 397.30 941.31 384.03 940.38 374.00 941.00 C 363.97 941.62 351.90 941.34 350.68 930.32 C 349.46 919.31 352.16 910.11 352.00 899.00 C 351.84 887.89 352.94 877.03 353.00 866.00 C 353.06 854.97 354.47 844.95 355.00 834.00 C 355.53 823.05 354.44 811.81 356.00 801.00 C 357.56 790.19 348.35 786.78 341.75 781.25 C 335.16 775.72 328.63 771.77 323.25 765.75 C 317.87 759.74 313.63 755.91 307.75 749.25 C 301.87 742.59 297.76 737.23 292.75 730.25 C 287.74 723.27 284.25 716.47 280.23 708.77 C 276.21 701.07 272.94 693.48 270.02 684.98 C 267.11 676.47 264.14 667.29 263.22 657.78 C 262.30 648.27 262.81 634.11 263.78 624.78 C 264.75 615.45 266.20 605.80 269.32 597.32 C 272.44 588.84 275.88 582.10 280.31 574.31 C 284.73 566.51 288.70 563.43 293.75 555.75 C 298.80 548.07 307.78 545.51 307.00 535.00 C 306.22 524.49 307.35 511.96 307.00 501.00 C 306.65 490.04 307.16 478.16 307.00 467.00 C 306.84 455.84 307.08 444.26 307.00 433.00 C 306.92 421.74 307.04 410.30 307.00 399.00 C 306.96 387.70 307.03 376.31 307.00 365.00 C 306.97 353.69 307.05 342.31 307.00 331.00 C 306.95 319.69 307.09 308.30 307.00 297.00 C 306.91 285.70 307.20 274.26 307.00 263.00 C 306.80 251.74 307.44 240.17 307.00 229.00 C 306.56 217.83 307.57 206.69 308.00 196.00 C 308.42 185.30 308.11 173.71 309.78 163.78 C 311.45 153.85 313.02 145.65 316.78 136.78 C 320.53 127.90 323.68 123.04 328.31 116.30 C 332.94 109.56 338.97 104.56 345.70 99.70 C 352.42 94.84 360.31 90.78 369.01 89.01 C 377.71 87.23 390.94 85.75 400.01 87.99 C 409.08 90.23 415.51 93.02 422.70 97.31 C 429.88 101.59 434.88 106.88 440.25 113.75 C 445.61 120.62 449.33 127.13 452.31 135.69 C 455.28 144.26 458.12 153.07 458.93 163.07 C 459.74 173.08 458.65 186.31 459.00 197.00 C 459.35 207.69 460.22 218.85 460.00 230.00 C 459.78 241.15 460.17 252.64 460.00 264.00 C 459.83 275.36 460.23 286.40 460.00 298.00 C 459.77 309.60 460.44 319.98 460.00 332.00 C 459.56 344.02 460.95 353.10 460.00 366.00 C 459.05 378.90 468.20 370.95 476.08 366.08 C 483.96 361.21 493.37 359.32 503.00 359.00 C 512.63 358.68 524.67 359.87 533.22 362.78 C 541.78 365.69 550.34 367.39 554.00 376.00 C 566.42 374.14 567.88 402.67 580.25 394.25 C 592.61 385.82 610.14 388.02 624.01 389.99 C 637.88 391.96 648.79 398.11 657.19 407.25 C 665.60 416.38 676.65 425.79 677.00 440.00 C 678.39 439.74 677.78 437.95 678.00 437.00 C 672.87 418.00 661.84 404.46 643.77 394.23 C 625.70 384.00 599.29 386.80 580.00 392.00 C 579.75 392.26 579.26 392.75 579.00 393.00 C 577.93 394.03 576.40 395.21 575.00 396.00 C 559.12 364.28 520.04 350.28 487.00 360.00 C 477.93 362.60 470.94 366.96 463.00 372.00 C 462.73 372.17 462.31 372.80 462.00 373.00 C 462.00 373.00 460.36 359.99 461.00 355.00 C 461.64 350.01 460.71 340.10 461.00 334.00 C 461.29 327.90 460.87 319.60 461.00 313.00 C 461.13 306.40 460.94 298.84 461.00 292.00 C 461.06 285.16 460.98 277.98 461.00 271.00 C 461.03 264.02 460.99 257.10 461.00 250.00 C 461.01 242.90 461.00 235.16 461.00 228.00 C 461.00 223.67 461.00 219.33 461.00 215.00 C 461.00 194.90 461.83 174.39 459.00 155.00 C 452.47 110.30 410.52 72.61 363.69 88.69 C 316.87 104.78 306.00 154.55 306.00 199.00 Z"
       id="path38" />
  </g>
  <g
     fill="#101316"
     fill-opacity="1.00"
     stroke="None"
     id="g39">
    <path
       d=" M 763.00 667.00  C 763.00 667.00 763.03 666.50 763.00 666.00 C 758.61 664.56 764.44 649.68 764.00 643.00 C 763.56 636.32 765.97 623.23 765.00 615.00 C 764.03 606.77 766.41 596.82 766.00 588.00 C 765.59 579.18 766.25 568.02 766.00 559.00 C 765.75 549.98 766.26 539.90 766.00 531.00 C 765.74 522.10 766.44 510.41 766.00 502.00 C 765.56 493.59 764.37 484.98 762.07 477.93 C 759.77 470.87 757.37 462.85 752.00 463.00 C 750.75 450.59 733.11 443.34 722.78 439.22 C 712.44 435.11 708.25 437.66 699.00 436.00 C 689.75 434.34 684.02 441.12 679.00 438.00 C 678.86 437.65 678.06 437.24 678.00 437.00 C 677.78 437.95 678.39 439.74 677.00 440.00 C 676.65 425.79 665.60 416.38 657.19 407.25 C 648.79 398.11 637.88 391.96 624.01 389.99 C 610.14 388.02 592.61 385.82 580.25 394.25 C 567.88 402.67 566.42 374.14 554.00 376.00 C 550.34 367.39 541.78 365.69 533.22 362.78 C 524.67 359.87 512.63 358.68 503.00 359.00 C 493.37 359.32 483.96 361.21 476.08 366.08 C 468.20 370.95 459.05 378.90 460.00 366.00 C 460.95 353.10 459.56 344.02 460.00 332.00 C 460.44 319.98 459.77 309.60 460.00 298.00 C 460.23 286.40 459.83 275.36 460.00 264.00 C 460.17 252.64 459.78 241.15 460.00 230.00 C 460.22 218.85 459.35 207.69 459.00 197.00 C 458.65 186.31 459.74 173.08 458.93 163.07 C 458.12 153.07 455.28 144.26 452.31 135.69 C 449.33 127.13 445.61 120.62 440.25 113.75 C 434.88 106.88 429.88 101.59 422.70 97.31 C 415.51 93.02 409.08 90.23 400.01 87.99 C 390.94 85.75 377.71 87.23 369.01 89.01 C 360.31 90.78 352.42 94.84 345.70 99.70 C 338.97 104.56 332.94 109.56 328.31 116.30 C 323.68 123.04 320.53 127.90 316.78 136.78 C 313.02 145.65 311.45 153.85 309.78 163.78 C 308.11 173.71 308.42 185.30 308.00 196.00 C 307.57 206.69 306.56 217.83 307.00 229.00 C 307.44 240.17 306.80 251.74 307.00 263.00 C 307.20 274.26 306.91 285.70 307.00 297.00 C 307.09 308.30 306.95 319.69 307.00 331.00 C 307.05 342.31 306.97 353.69 307.00 365.00 C 307.03 376.31 306.96 387.70 307.00 399.00 C 307.04 410.30 306.92 421.74 307.00 433.00 C 307.08 444.26 306.84 455.84 307.00 467.00 C 307.16 478.16 306.65 490.04 307.00 501.00 C 307.35 511.96 306.22 524.49 307.00 535.00 C 307.78 545.51 298.80 548.07 293.75 555.75 C 288.70 563.43 284.73 566.51 280.31 574.31 C 275.88 582.10 272.44 588.84 269.32 597.32 C 266.20 605.80 264.75 615.45 263.78 624.78 C 262.81 634.11 262.30 648.27 263.22 657.78 C 264.14 667.29 267.11 676.47 270.02 684.98 C 272.94 693.48 276.21 701.07 280.23 708.77 C 284.25 716.47 287.74 723.27 292.75 730.25 C 297.76 737.23 301.87 742.59 307.75 749.25 C 313.63 755.91 317.87 759.74 323.25 765.75 C 328.63 771.77 335.16 775.72 341.75 781.25 C 348.35 786.78 357.56 790.19 356.00 801.00 C 354.44 811.81 355.53 823.05 355.00 834.00 C 354.47 844.95 353.06 854.97 353.00 866.00 C 352.94 877.03 351.84 887.89 352.00 899.00 C 352.16 910.11 349.46 919.31 350.68 930.32 C 351.90 941.34 363.97 941.62 374.00 941.00 C 384.03 940.38 397.30 941.31 408.00 941.00 C 418.70 940.69 431.04 941.20 442.00 941.00 C 452.96 940.80 465.03 941.24 476.00 941.00 C 486.97 940.76 499.24 941.44 509.98 940.98 C 520.72 940.52 530.74 941.16 542.00 941.00 C 553.26 940.84 564.78 941.10 576.00 941.00 C 587.22 940.90 598.91 941.11 610.00 941.00 C 621.09 940.89 633.19 941.19 644.00 941.00 C 654.81 940.81 667.83 941.40 678.00 941.00 C 688.17 940.60 700.04 943.83 705.23 934.23 C 710.42 924.63 705.02 913.57 706.00 903.00 C 706.98 892.43 705.26 880.53 705.00 870.00 C 704.74 859.47 704.17 847.48 704.00 837.00 C 703.83 826.52 702.54 814.73 702.33 804.67 C 702.12 794.61 709.50 792.65 713.75 786.75 C 718.00 780.86 723.71 773.73 728.23 767.23 C 732.74 760.72 736.06 752.23 740.22 745.22 C 744.39 738.22 746.05 727.68 749.22 720.22 C 752.40 712.77 753.99 700.68 756.67 693.67 C 759.35 686.67 757.00 669.77 763.00 667.00 M 439.00 239.00  C 439.00 262.33 439.00 285.67 439.00 309.00 C 439.00 318.00 439.00 327.00 439.00 336.00 C 439.00 341.33 439.00 346.67 439.00 352.00 C 439.00 396.19 435.92 437.48 430.00 480.00 C 392.28 482.12 359.59 502.45 328.00 521.00 C 328.17 478.39 327.77 432.26 328.00 390.00 C 328.23 347.74 327.56 299.97 328.00 259.00 C 328.44 218.03 324.46 173.85 338.77 138.77 C 353.08 103.69 397.67 96.71 421.75 125.25 C 445.84 153.78 437.78 202.65 439.00 239.00 M 488.00 591.00  C 505.93 573.10 516.71 546.51 509.07 521.93 C 501.44 497.34 476.70 484.60 453.00 481.00 C 455.78 450.50 455.19 407.80 480.75 387.75 C 506.31 367.70 558.03 383.46 557.99 417.01 C 557.96 450.56 543.82 488.66 539.67 520.67 C 535.52 552.69 526.20 590.88 488.00 591.00 M 618.00 409.00  C 633.43 411.20 650.68 421.24 656.31 437.69 C 661.93 454.15 654.81 478.00 651.02 495.02 C 647.24 512.04 643.38 533.31 639.01 550.01 C 634.64 566.71 632.16 585.20 616.92 595.92 C 601.68 606.64 583.07 608.72 565.77 598.23 C 548.47 587.74 550.53 567.16 554.99 548.99 C 559.45 530.82 563.75 513.41 566.98 493.98 C 570.20 474.54 576.61 457.66 577.33 436.33 C 578.05 415.00 596.12 405.87 618.00 409.00 M 709.00 457.00  C 723.02 459.00 734.96 468.02 741.31 481.70 C 747.65 495.37 743.93 515.02 739.07 529.07 C 734.22 543.13 731.15 559.77 727.01 574.01 C 722.86 588.25 721.33 602.74 707.92 611.92 C 694.50 621.10 679.00 623.22 663.92 615.08 C 648.83 606.94 648.97 588.91 653.99 573.99 C 659.02 559.08 662.66 544.84 665.93 528.93 C 669.19 513.01 675.14 499.36 676.00 482.00 C 676.85 464.63 689.97 454.28 709.00 457.00 M 443.00 620.00  C 452.56 617.24 461.26 607.58 472.00 611.00 C 482.74 614.41 496.98 613.52 507.22 610.22 C 517.46 606.92 526.51 603.74 534.00 596.00 C 554.27 630.06 602.28 634.66 633.00 613.00 C 645.38 639.13 676.29 646.87 703.07 640.07 C 729.85 633.27 742.90 603.79 744.00 578.00 C 746.71 591.75 744.26 607.92 744.02 622.02 C 743.79 636.13 742.10 651.74 740.07 665.07 C 738.05 678.40 736.50 692.68 733.01 705.01 C 729.52 717.34 725.38 728.20 720.22 739.22 C 715.07 750.25 708.67 758.39 702.23 768.23 C 695.79 778.07 686.09 783.37 678.30 791.30 C 670.51 799.24 653.58 798.55 652.03 812.03 C 650.47 825.50 675.82 819.34 682.00 813.00 C 682.91 848.43 683.66 883.95 686.00 919.00 C 581.84 921.33 476.58 919.33 372.00 920.00 C 372.09 881.19 374.30 842.91 374.00 804.00 C 386.36 812.08 393.15 810.02 407.07 816.93 C 420.99 823.83 434.87 807.04 420.92 800.08 C 406.98 793.12 399.60 793.50 387.93 787.07 C 376.25 780.65 368.86 776.14 358.92 769.08 C 348.98 762.02 342.28 755.63 333.75 747.25 C 325.23 738.87 319.03 732.30 312.25 722.75 C 305.47 713.21 299.93 704.05 295.08 692.92 C 290.22 681.80 286.06 668.96 284.67 656.33 C 283.28 643.70 283.51 625.33 286.33 613.33 C 289.15 601.33 294.57 591.00 301.25 581.25 C 307.94 571.51 314.20 563.93 322.75 555.75 C 331.31 547.57 338.02 541.09 347.75 534.75 C 357.48 528.41 367.08 523.15 377.70 517.69 C 388.31 512.24 400.13 507.83 412.01 505.01 C 423.89 502.18 441.69 500.15 454.00 503.00 C 466.31 505.84 474.58 511.19 483.25 520.75 C 491.91 530.31 490.02 547.00 484.69 557.70 C 479.37 568.39 472.09 574.04 463.25 582.25 C 454.41 590.46 442.69 593.22 431.93 597.93 C 421.16 602.63 402.21 596.58 393.75 606.75 C 385.30 616.93 404.27 626.75 413.23 629.77 C 422.19 632.80 433.52 641.90 441.75 648.25 C 449.99 654.60 458.42 663.27 465.92 671.08 C 473.42 678.89 478.49 689.93 484.77 698.23 C 491.05 706.53 489.44 725.56 503.22 726.78 C 517.01 728.00 512.98 704.21 507.08 695.92 C 501.17 687.64 496.23 676.03 489.25 667.75 C 482.26 659.48 476.61 649.28 468.75 641.25 C 460.89 633.22 451.92 625.99 443.00 620.00 Z"
       id="path39" />
  </g>
  <g
     fill="#FEFEFB"
     fill-opacity="1.00"
     stroke="None"
     id="g40">
    <path
       d=" M 439.00 352.00  C 438.54 347.29 438.00 341.40 438.00 336.00 C 438.00 327.00 438.00 318.00 438.00 309.00 C 438.00 285.89 436.84 261.27 439.00 239.00 C 437.78 202.65 445.84 153.78 421.75 125.25 C 397.67 96.71 353.08 103.69 338.77 138.77 C 324.46 173.85 328.44 218.03 328.00 259.00 C 327.56 299.97 328.23 347.74 328.00 390.00 C 327.77 432.26 328.17 478.39 328.00 521.00 C 359.59 502.45 392.28 482.12 430.00 480.00 C 435.92 437.48 439.00 396.19 439.00 352.00 M 363.00 202.00  C 375.46 205.89 370.22 233.35 357.00 229.00 C 343.78 224.65 350.03 197.95 363.00 202.00 M 411.00 202.00  C 423.65 205.21 418.14 233.10 405.00 229.00 C 391.86 224.90 398.27 198.77 411.00 202.00 M 365.00 258.00  C 371.80 259.09 375.34 265.85 384.00 265.00 C 392.66 264.15 396.24 260.57 404.03 258.03 C 411.81 255.48 415.53 268.73 410.69 273.69 C 405.86 278.66 402.10 283.06 394.78 284.78 C 387.46 286.49 378.00 286.50 370.93 284.07 C 363.85 281.65 360.04 278.05 356.08 271.92 C 352.11 265.80 356.77 256.68 365.00 258.00 Z"
       id="path40" />
  </g>
  <g
     fill="#0D1113"
     fill-opacity="1.00"
     stroke="None"
     id="g41">
    <path
       d=" M 363.00 202.00  C 350.03 197.95 343.78 224.65 357.00 229.00 C 370.22 233.35 375.46 205.89 363.00 202.00 Z"
       id="path41" />
  </g>
  <g
     fill="#0D1013"
     fill-opacity="1.00"
     stroke="None"
     id="g42">
    <path
       d=" M 411.00 202.00  C 398.27 198.77 391.86 224.90 405.00 229.00 C 418.14 233.10 423.65 205.21 411.00 202.00 Z"
       id="path42" />
  </g>
  <g
     fill="#F7A901"
     fill-opacity="1.00"
     stroke="None"
     id="g43">
    <path
       d=" M 263.00 668.00  C 259.20 650.30 260.96 627.39 264.22 610.22 C 267.48 593.05 274.36 581.90 283.23 567.23 C 292.10 552.56 306.97 546.66 305.00 527.00 C 303.03 507.34 305.87 485.29 305.00 465.00 C 304.13 444.71 305.40 422.54 305.00 402.00 C 304.60 381.46 305.17 360.61 305.00 340.00 C 304.83 319.39 305.07 298.64 305.00 278.00 C 304.93 257.36 305.00 236.64 305.00 216.00 C 304.43 212.16 306.19 207.09 304.00 204.00 C 304.01 219.62 303.99 235.40 304.00 251.00 C 304.01 266.60 303.97 282.46 304.00 298.00 C 304.03 313.54 303.94 328.50 304.00 344.00 C 304.06 359.50 303.88 375.53 304.00 391.00 C 304.12 406.47 303.74 422.70 304.00 438.00 C 304.26 453.30 303.40 469.03 304.00 484.00 C 304.60 498.97 302.70 516.67 304.00 531.00 C 305.30 545.33 292.93 550.14 286.30 560.30 C 279.67 570.46 273.64 578.82 269.77 589.77 C 265.91 600.72 259.32 615.56 260.00 627.00 C 260.68 638.44 256.25 661.85 263.00 668.00 Z"
       id="path43" />
  </g>
  <g
     fill="#A05C0A"
     fill-opacity="1.00"
     stroke="None"
     id="g44">
    <path
       d=" M 461.00 228.00  C 461.00 227.96 462.00 228.00 462.00 228.00 C 462.00 225.34 462.11 222.66 462.00 220.00 C 461.93 218.19 461.17 216.20 461.00 215.00 C 461.00 219.33 461.00 223.67 461.00 228.00 Z"
       id="path44" />
  </g>
  <g
     fill="#FEB300"
     fill-opacity="1.00"
     stroke="None"
     id="g45">
    <path
       d=" M 462.00 228.00  C 462.00 239.93 461.73 252.10 462.00 264.00 C 462.27 275.90 461.29 288.18 462.00 300.00 C 462.71 311.82 460.36 324.40 462.00 336.00 C 463.64 347.60 458.46 361.95 462.00 373.00 C 462.31 372.80 462.73 372.17 463.00 372.00 C 466.52 347.55 462.38 319.63 463.00 295.00 C 463.62 270.37 465.43 243.63 462.00 220.00 C 462.11 222.66 462.00 225.34 462.00 228.00 Z"
       id="path45" />
  </g>
  <g
     fill="#5B3510"
     fill-opacity="1.00"
     stroke="None"
     id="g46">
    <path
       d=" M 462.00 373.00  C 458.46 361.95 463.64 347.60 462.00 336.00 C 460.36 324.40 462.71 311.82 462.00 300.00 C 461.29 288.18 462.27 275.90 462.00 264.00 C 461.73 252.10 462.00 239.93 462.00 228.00 C 462.00 228.00 461.00 227.96 461.00 228.00 C 461.00 235.16 461.01 242.90 461.00 250.00 C 460.99 257.10 461.03 264.02 461.00 271.00 C 460.98 277.98 461.06 285.16 461.00 292.00 C 460.94 298.84 461.13 306.40 461.00 313.00 C 460.87 319.60 461.29 327.90 461.00 334.00 C 460.71 340.10 461.64 350.01 461.00 355.00 C 460.36 359.99 462.00 373.00 462.00 373.00 Z"
       id="path46" />
  </g>
  <g
     fill="#919291"
     fill-opacity="1.00"
     stroke="None"
     id="g47">
    <path
       d=" M 438.00 309.00  C 438.00 308.96 439.00 309.00 439.00 309.00 C 439.00 285.67 439.00 262.33 439.00 239.00 C 436.84 261.27 438.00 285.89 438.00 309.00 Z"
       id="path47" />
  </g>
  <g
     fill="#0F1215"
     fill-opacity="1.00"
     stroke="None"
     id="g48">
    <path
       d=" M 365.00 258.00  C 356.77 256.68 352.11 265.80 356.08 271.92 C 360.04 278.05 363.85 281.65 370.93 284.07 C 378.00 286.50 387.46 286.49 394.78 284.78 C 402.10 283.06 405.86 278.66 410.69 273.69 C 415.53 268.73 411.81 255.48 404.03 258.03 C 396.24 260.57 392.66 264.15 384.00 265.00 C 375.34 265.85 371.80 259.09 365.00 258.00 Z"
       id="path48" />
  </g>
  <g
     fill="#727372"
     fill-opacity="1.00"
     stroke="None"
     id="g49">
    <path
       d=" M 438.00 336.00  C 438.00 335.96 439.00 336.00 439.00 336.00 C 439.00 327.00 439.00 318.00 439.00 309.00 C 439.00 309.00 438.00 308.96 438.00 309.00 C 438.00 318.00 438.00 327.00 438.00 336.00 Z"
       id="path49" />
  </g>
  <g
     fill="#91918F"
     fill-opacity="1.00"
     stroke="None"
     id="g50">
    <path
       d=" M 439.00 352.00  C 439.00 346.67 439.00 341.33 439.00 336.00 C 439.00 336.00 438.00 335.96 438.00 336.00 C 438.00 341.40 438.54 347.29 439.00 352.00 Z"
       id="path50" />
  </g>
  <g
     fill="#ED9E04"
     fill-opacity="1.00"
     stroke="None"
     id="g51">
    <path
       d=" M 487.00 360.00  C 520.04 350.28 559.12 364.28 575.00 396.00 C 576.40 395.21 577.93 394.03 579.00 393.00 C 578.27 391.31 576.26 393.77 575.00 394.00 C 566.85 380.21 556.86 369.13 541.69 362.31 C 526.53 355.48 501.46 352.93 487.00 360.00 Z"
       id="path51" />
  </g>
  <g
     fill="#FDFDFA"
     fill-opacity="1.00"
     stroke="None"
     id="g52">
    <path
       d=" M 488.00 591.00  C 526.20 590.88 535.52 552.69 539.67 520.67 C 543.82 488.66 557.96 450.56 557.99 417.01 C 558.03 383.46 506.31 367.70 480.75 387.75 C 455.19 407.80 455.78 450.50 453.00 481.00 C 476.70 484.60 501.44 497.34 509.07 521.93 C 516.71 546.51 505.93 573.10 488.00 591.00 Z"
       id="path52" />
  </g>
  <g
     fill="#ED9B04"
     fill-opacity="1.00"
     stroke="None"
     id="g53">
    <path
       d=" M 580.00 392.00  C 599.29 386.80 625.70 384.00 643.77 394.23 C 661.84 404.46 672.87 418.00 678.00 437.00 C 678.06 437.24 678.86 437.65 679.00 438.00 C 682.16 438.31 686.77 435.60 690.00 435.00 C 686.98 432.36 682.66 436.48 679.00 436.00 C 675.97 423.40 668.35 412.42 658.75 403.25 C 649.15 394.08 635.76 388.68 623.01 386.99 C 610.25 385.31 590.04 381.52 580.00 392.00 Z"
       id="path53" />
  </g>
  <g
     fill="#FDFDFB"
     fill-opacity="1.00"
     stroke="None"
     id="g54">
    <path
       d=" M 618.00 409.00  C 596.12 405.87 578.05 415.00 577.33 436.33 C 576.61 457.66 570.20 474.54 566.98 493.98 C 563.75 513.41 559.45 530.82 554.99 548.99 C 550.53 567.16 548.47 587.74 565.77 598.23 C 583.07 608.72 601.68 606.64 616.92 595.92 C 632.16 585.20 634.64 566.71 639.01 550.01 C 643.38 533.31 647.24 512.04 651.02 495.02 C 654.81 478.00 661.93 454.15 656.31 437.69 C 650.68 421.24 633.43 411.20 618.00 409.00 Z"
       id="path54" />
  </g>
  <g
     fill="#F39F04"
     fill-opacity="1.00"
     stroke="None"
     id="g55">
    <path
       d=" M 691.00 435.00  C 698.31 432.41 710.75 433.74 718.00 436.00 C 716.42 433.99 692.49 429.42 691.00 435.00 Z"
       id="path55" />
  </g>
  <g
     fill="#04081E"
     fill-opacity="1.00"
     stroke="None"
     id="g56">
    <path
       d=" M 691.00 435.00  C 691.00 435.00 690.48 434.91 690.00 435.00 C 686.77 435.60 682.16 438.31 679.00 438.00 C 684.02 441.12 689.75 434.34 699.00 436.00 C 708.25 437.66 712.44 435.11 722.78 439.22 C 733.11 443.34 750.75 450.59 752.00 463.00 C 757.37 462.85 759.77 470.87 762.07 477.93 C 764.37 484.98 765.56 493.59 766.00 502.00 C 766.44 510.41 765.74 522.10 766.00 531.00 C 766.26 539.90 765.75 549.98 766.00 559.00 C 766.25 568.02 765.59 579.18 766.00 588.00 C 766.41 596.82 764.03 606.77 765.00 615.00 C 765.97 623.23 763.56 636.32 764.00 643.00 C 764.44 649.68 758.61 664.56 763.00 666.00 C 762.53 658.97 764.43 651.14 765.00 644.00 C 765.59 636.54 766.00 628.80 766.00 621.00 C 766.00 617.25 766.71 613.01 767.00 610.00 C 767.00 602.00 767.00 594.00 767.00 586.00 C 767.00 581.33 767.00 576.67 767.00 572.00 C 767.00 554.33 767.00 536.67 767.00 519.00 C 767.00 514.00 767.00 509.00 767.00 504.00 C 767.00 499.38 766.52 495.37 766.00 491.00 C 765.94 490.51 766.01 489.50 766.00 489.00 C 765.35 464.17 742.75 442.83 720.00 437.00 C 719.21 436.80 718.43 436.14 718.00 436.00 C 710.75 433.74 698.31 432.41 691.00 435.00 Z"
       id="path56" />
  </g>
  <g
     fill="#EC9B04"
     fill-opacity="1.00"
     stroke="None"
     id="g57">
    <path
       d=" M 720.00 437.00  C 742.75 442.83 765.35 464.17 766.00 489.00 C 770.88 478.74 758.36 462.58 751.75 454.25 C 745.15 445.91 729.87 436.45 720.00 437.00 Z"
       id="path57" />
  </g>
  <g
     fill="#FDFDFB"
     fill-opacity="1.00"
     stroke="None"
     id="g58">
    <path
       d=" M 709.00 457.00  C 689.97 454.28 676.85 464.63 676.00 482.00 C 675.14 499.36 669.19 513.01 665.93 528.93 C 662.66 544.84 659.02 559.08 653.99 573.99 C 648.97 588.91 648.83 606.94 663.92 615.08 C 679.00 623.22 694.50 621.10 707.92 611.92 C 721.33 602.74 722.86 588.25 727.01 574.01 C 731.15 559.77 734.22 543.13 739.07 529.07 C 743.93 515.02 747.65 495.37 741.31 481.70 C 734.96 468.02 723.02 459.00 709.00 457.00 Z"
       id="path58" />
  </g>
  <g
     fill="#F9A301"
     fill-opacity="1.00"
     stroke="None"
     id="g59">
    <path
       d=" M 767.00 504.00  C 767.42 508.39 768.00 513.93 768.00 519.00 C 768.00 536.67 768.00 554.33 768.00 572.00 C 768.57 575.84 766.82 580.91 769.00 584.00 C 768.52 574.03 769.64 561.74 769.00 552.00 C 768.36 542.26 770.23 528.90 769.00 520.00 C 767.77 511.10 772.01 495.82 766.00 491.00 C 766.52 495.37 767.00 499.38 767.00 504.00 Z"
       id="path59" />
  </g>
  <g
     fill="#FEFEFB"
     fill-opacity="1.00"
     stroke="None"
     id="g60">
    <path
       d=" M 443.00 620.00  C 451.92 625.99 460.89 633.22 468.75 641.25 C 476.61 649.28 482.26 659.48 489.25 667.75 C 496.23 676.03 501.17 687.64 507.08 695.92 C 512.98 704.21 517.01 728.00 503.22 726.78 C 489.44 725.56 491.05 706.53 484.77 698.23 C 478.49 689.93 473.42 678.89 465.92 671.08 C 458.42 663.27 449.99 654.60 441.75 648.25 C 433.52 641.90 422.19 632.80 413.23 629.77 C 404.27 626.75 385.30 616.93 393.75 606.75 C 402.21 596.58 421.16 602.63 431.93 597.93 C 442.69 593.22 454.41 590.46 463.25 582.25 C 472.09 574.04 479.37 568.39 484.69 557.70 C 490.02 547.00 491.91 530.31 483.25 520.75 C 474.58 511.19 466.31 505.84 454.00 503.00 C 441.69 500.15 423.89 502.18 412.01 505.01 C 400.13 507.83 388.31 512.24 377.70 517.69 C 367.08 523.15 357.48 528.41 347.75 534.75 C 338.02 541.09 331.31 547.57 322.75 555.75 C 314.20 563.93 307.94 571.51 301.25 581.25 C 294.57 591.00 289.15 601.33 286.33 613.33 C 283.51 625.33 283.28 643.70 284.67 656.33 C 286.06 668.96 290.22 681.80 295.08 692.92 C 299.93 704.05 305.47 713.21 312.25 722.75 C 319.03 732.30 325.23 738.87 333.75 747.25 C 342.28 755.63 348.98 762.02 358.92 769.08 C 368.86 776.14 376.25 780.65 387.93 787.07 C 399.60 793.50 406.98 793.12 420.92 800.08 C 434.87 807.04 420.99 823.83 407.07 816.93 C 393.15 810.02 386.36 812.08 374.00 804.00 C 374.30 842.91 372.09 881.19 372.00 920.00 C 476.58 919.33 581.84 921.33 686.00 919.00 C 683.66 883.95 682.91 848.43 682.00 813.00 C 675.82 819.34 650.47 825.50 652.03 812.03 C 653.58 798.55 670.51 799.24 678.30 791.30 C 686.09 783.37 695.79 778.07 702.23 768.23 C 708.67 758.39 715.07 750.25 720.22 739.22 C 725.38 728.20 729.52 717.34 733.01 705.01 C 736.50 692.68 738.05 678.40 740.07 665.07 C 742.10 651.74 743.79 636.13 744.02 622.02 C 744.26 607.92 746.71 591.75 744.00 578.00 C 742.90 603.79 729.85 633.27 703.07 640.07 C 676.29 646.87 645.38 639.13 633.00 613.00 C 602.28 634.66 554.27 630.06 534.00 596.00 C 526.51 603.74 517.46 606.92 507.22 610.22 C 496.98 613.52 482.74 614.41 472.00 611.00 C 461.26 607.58 452.56 617.24 443.00 620.00 Z"
       id="path60" />
  </g>
  <g
     fill="#CC7604"
     fill-opacity="1.00"
     stroke="None"
     id="g61">
    <path
       d=" M 767.00 519.00  C 767.00 518.96 768.00 519.00 768.00 519.00 C 768.00 513.93 767.42 508.39 767.00 504.00 C 767.00 509.00 767.00 514.00 767.00 519.00 Z"
       id="path61" />
  </g>
  <g
     fill="#975608"
     fill-opacity="1.00"
     stroke="None"
     id="g62">
    <path
       d=" M 767.00 572.00  C 767.00 572.00 768.00 572.04 768.00 572.00 C 768.00 554.33 768.00 536.67 768.00 519.00 C 768.00 519.00 767.00 518.96 767.00 519.00 C 767.00 536.67 767.00 554.33 767.00 572.00 Z"
       id="path62" />
  </g>
  <g
     fill="#EF9B03"
     fill-opacity="1.00"
     stroke="None"
     id="g63">
    <path
       d=" M 767.00 610.00  C 767.00 613.75 766.29 617.99 766.00 621.00 C 766.00 628.80 765.59 636.54 765.00 644.00 C 765.60 641.66 768.41 633.31 768.00 627.00 C 767.59 620.69 767.83 612.55 768.00 606.00 C 768.17 599.46 767.57 591.89 767.00 586.00 C 767.00 594.00 767.00 602.00 767.00 610.00 Z"
       id="path63" />
  </g>
  <g
     fill="#5A3413"
     fill-opacity="1.00"
     stroke="None"
     id="g64">
    <path
       d=" M 766.00 621.00  C 766.29 617.99 767.00 613.75 767.00 610.00 C 766.71 613.01 766.00 617.25 766.00 621.00 Z"
       id="path64" />
  </g>
  <g
     fill="#EB9A04"
     fill-opacity="1.00"
     stroke="None"
     id="g65">
    <path
       d=" M 292.00 732.00  C 281.74 711.02 269.87 693.05 264.00 670.00 C 263.06 679.05 269.48 695.31 274.23 703.77 C 278.97 712.23 283.56 726.97 292.00 732.00 Z"
       id="path65" />
  </g>
  <g
     fill="#EF9502"
     fill-opacity="1.00"
     stroke="None"
     id="g66">
    <path
       d=" M 352.00 864.00  C 347.04 881.26 351.64 896.45 348.00 915.00 C 344.36 933.55 353.77 946.62 373.00 944.00 C 392.23 941.38 409.35 945.25 428.00 944.00 C 446.65 942.75 463.63 944.66 482.00 944.00 C 500.37 943.34 518.78 944.54 537.00 944.00 C 555.22 943.46 572.89 944.77 591.00 944.00 C 609.11 943.23 626.94 945.52 645.00 944.00 C 663.06 942.48 681.27 947.71 698.92 942.92 C 716.58 938.14 707.67 915.33 709.00 901.00 C 710.33 886.67 705.53 862.71 707.00 848.00 C 708.47 833.29 701.00 810.37 707.25 798.25 C 713.49 786.13 725.18 779.43 731.08 767.08 C 736.98 754.73 744.70 744.36 749.02 731.02 C 753.35 717.69 758.50 702.41 759.00 689.00 C 756.45 702.22 752.76 716.57 747.98 728.98 C 743.19 741.38 739.56 751.86 731.92 762.92 C 724.29 773.99 721.40 781.66 710.92 791.92 C 700.44 802.18 705.35 820.03 705.01 834.99 C 704.67 849.96 708.22 867.39 707.00 883.00 C 705.78 898.61 711.94 914.93 708.77 930.77 C 705.60 946.61 684.04 941.65 670.00 942.00 C 655.96 942.35 634.55 941.81 619.00 942.00 C 603.45 942.19 585.25 941.85 569.00 942.00 C 552.75 942.15 535.69 941.80 519.00 942.00 C 502.31 942.20 486.13 941.61 469.00 942.00 C 451.87 942.39 435.75 941.18 418.00 942.00 C 400.25 942.82 387.02 940.16 368.00 942.00 C 348.98 943.84 348.44 927.71 350.00 912.00 C 351.56 896.29 352.00 879.65 352.00 864.00 Z"
       id="path66" />
  </g>
  <g
     fill="#EA9D05"
     fill-opacity="1.00"
     stroke="None"
     id="g67">
    <path
       d=" M 355.00 794.00  C 353.92 789.63 344.83 786.13 341.23 782.77 C 337.63 779.41 332.33 774.68 328.00 772.00 C 327.68 771.80 327.27 771.21 327.00 771.00 C 324.15 769.24 320.80 765.91 319.00 763.00 C 318.79 762.73 318.27 762.21 318.00 762.00 C 308.44 756.10 299.46 741.80 293.00 733.00 C 292.51 741.18 309.54 752.50 314.25 759.75 C 318.96 767.00 322.89 766.30 326.75 772.25 C 330.61 778.19 336.90 778.89 340.25 783.75 C 343.59 788.61 353.18 789.19 355.00 794.00 Z"
       id="path67" />
  </g>
  <g
     fill="#3E2516"
     fill-opacity="1.00"
     stroke="None"
     id="g68">
    <path
       d=" M 319.00 763.00  C 318.80 762.68 318.32 762.20 318.00 762.00 C 318.27 762.21 318.79 762.73 319.00 763.00 Z"
       id="path68" />
  </g>
  <g
     fill="#A86A05"
     fill-opacity="1.00"
     stroke="None"
     id="g69">
    <path
       d=" M 328.00 772.00  C 327.73 771.79 327.32 771.20 327.00 771.00 C 327.27 771.21 327.68 771.80 328.00 772.00 Z"
       id="path69" />
  </g>
  <g
     fill="#EA9704"
     fill-opacity="1.00"
     stroke="None"
     id="g70">
    <path
       d=" M 352.00 862.00  C 352.00 841.52 353.82 820.40 355.00 800.00 C 353.25 808.82 350.98 820.81 352.00 831.00 C 353.02 841.19 347.99 852.57 352.00 862.00 Z"
       id="path70" />
  </g>
</svg>
