<?xml version="1.0" encoding="UTF-8" standalone="no"?>
<!-- Created with Inkscape (http://www.inkscape.org/) -->

<svg
   version="1.1"
   id="svg1"
   width="1448"
   height="1086"
   viewBox="0 0 1448 1086"
   sodipodi:docname="ChatGPT Image 26. Mai 2026, 10_27_51.svg"
   inkscape:version="1.4.3 (0d15f75, 2025-12-25)"
   xmlns:inkscape="http://www.inkscape.org/namespaces/inkscape"
   xmlns:sodipodi="http://sodipodi.sourceforge.net/DTD/sodipodi-0.dtd"
   xmlns:xlink="http://www.w3.org/1999/xlink"
   xmlns="http://www.w3.org/2000/svg"
   xmlns:svg="http://www.w3.org/2000/svg">
  <defs
     id="defs1" />
  <sodipodi:namedview
     id="namedview1"
     pagecolor="#ffffff"
     bordercolor="#000000"
     borderopacity="0.25"
     inkscape:showpageshadow="2"
     inkscape:pageopacity="0.0"
     inkscape:pagecheckerboard="0"
     inkscape:deskcolor="#d1d1d1"
     inkscape:zoom="1.0745856"
     inkscape:cx="724"
     inkscape:cy="543"
     inkscape:window-width="2560"
     inkscape:window-height="1369"
     inkscape:window-x="-8"
     inkscape:window-y="-8"
     inkscape:window-maximized="1"
     inkscape:current-layer="g1" />
  <g
     inkscape:groupmode="layer"
     inkscape:label="Image"
     id="g1">
    
    <path
       style="fill:#3a3a3a"
       d="m 489.01311,1085.3174 c 0.007,-0.4496 5.5197,-2.5383 12.25,-4.6416 6.73029,-2.1032 23.26189,-7.3592 36.73689,-11.6798 37.46603,-12.013 94.12567,-29.6176 143,-44.4311 10.175,-3.084 20.75,-6.3204 23.5,-7.1921 8.10524,-2.5691 52.64274,-16.1378 70.5,-21.4784 9.075,-2.71407 19.875,-6.02042 24,-7.34744 4.125,-1.32702 14.7,-4.51618 23.5,-7.08703 8.8,-2.57084 19.375,-5.73264 23.5,-7.02622 4.125,-1.29359 13.8,-4.19473 21.5,-6.44699 7.7,-2.25226 17.6,-5.16263 22,-6.4675 51.34322,-15.2263 77.38546,-22.84609 126.5,-37.01305 14.025,-4.04548 42.6,-12.30198 63.5,-18.34778 35.3239,-10.21824 78.1596,-22.21538 150.5,-42.15106 16.225,-4.47131 37.15,-10.33035 46.5,-13.0201 9.35,-2.68974 30.275,-8.5256 46.5,-12.96857 16.225,-4.44298 32.425,-8.94596 36,-10.00663 10.5433,-3.12811 45.8196,-12.52092 50.5,-13.44634 6.6645,-1.31771 -0.6196,1.3371 -13.5,4.9203 -7.425,2.06556 -20.475,5.75602 -29,8.20102 -8.525,2.445 -20.675,5.78906 -27,7.43125 -6.325,1.64218 -14.2,3.82173 -17.5,4.84343 -3.3,1.0217 -13.65,3.96875 -23,6.549 -9.35,2.58025 -24.425,6.8487 -33.5,9.48543 -13.7543,3.9963 -43.4647,12.32346 -87.5,24.5243 -4.4,1.21911 -15.65,4.35666 -25,6.97234 -9.35,2.61568 -20.825,5.77365 -25.5,7.01772 -10.1837,2.70999 -121.191,34.61026 -153,43.96776 -12.375,3.64045 -35.55,10.45757 -51.5,15.14917 -15.95,4.6916 -32.375,9.58969 -36.5,10.88464 -4.125,1.29495 -13.125,4.00113 -20,6.01374 -18.01382,5.27344 -47.49902,14.1243 -87,26.11568 -18.975,5.76023 -44.175,13.40323 -56,16.98443 -11.825,3.5812 -28.475,8.6888 -37,11.3502 -8.525,2.6615 -20,6.2044 -25.5,7.8732 -5.5,1.6689 -26.2,8.0488 -46,14.1777 -19.8,6.1289 -42.3,13.0713 -50,15.4275 -7.7,2.3563 -20.75,6.4154 -29,9.0205 -8.25,2.605 -21.3,6.6453 -29,8.9784 -7.7,2.3332 -15.0125,4.5659 -16.25,4.9617 -1.2375,0.3958 -2.2441,0.3519 -2.23689,-0.098 z M 107.37927,855.75 c 1.4699,-370.60353 1.67206,-396.57896 3.1923,-410.16689 C 114.64809,409.147 129.11507,368.74236 148.0178,341 174.08705,302.73978 210.51547,277.12468 251.5,268.23519 c 11.22728,-2.43518 41.7121,-2.42951 53.04188,0.01 53.55793,11.5314 101.28997,52.53528 132.89163,114.15964 9.03195,17.61263 14.12545,29.85594 20.62719,49.58185 11.42982,34.67748 16.79295,62.4388 20.50218,106.12605 l 0.64634,7.61259 11.01148,1.76557 c 6.05632,0.97106 14.67174,2.5635 19.14539,3.53875 4.47365,0.97526 8.18835,1.70508 8.25489,1.62184 0.0665,-0.0832 0.64895,-27.60135 1.29423,-61.15135 0.64529,-33.55 1.35434,-64.825 1.57567,-69.5 0.3368,-7.11391 2.08634,-87.71529 2.8056,-129.25374 0.11805,-6.81783 0.62276,-11.85715 1.20184,-12 0.5838,-0.14401 1.71207,6.6049 2.71726,16.25374 0.94542,9.075 3.96292,37.2 6.70556,62.5 2.74265,25.3 5.90713,55 7.0322,66 1.12507,11 2.50242,24.275 3.06079,29.5 0.55836,5.225 2.13272,21.2 3.49857,35.5 1.36585,14.3 3.15876,32.525 3.98425,40.5 0.82548,7.975 2.62068,26.425 3.98932,41 1.36865,14.575 4.06197,42.7 5.98516,62.5 3.04793,31.37972 5.0093,51.74515 12.03857,125 0.79164,8.25 2.78384,28.725 4.42711,45.5 5.35523,54.66774 6.16908,63.31165 8.47253,89.98738 0.29248,3.38708 0.41316,3.47982 4.19575,3.22426 2.14204,-0.14472 6.81961,-0.71373 10.39461,-1.26448 3.575,-0.55074 13.81844,-1.8201 22.7632,-2.82079 8.94476,-1.00069 16.52608,-2.08232 16.84738,-2.40362 0.3213,-0.32129 -0.1478,-6.57785 -1.04242,-13.90346 -3.9719,-32.52364 -7.91644,-66.21544 -12.09632,-103.31929 -2.47839,-22 -6.50469,-57.1 -8.94734,-78 -5.18068,-44.3273 -11.98002,-105.2356 -13.50751,-121 -0.58622,-6.05 -2.40613,-23.375 -4.04426,-38.5 -1.63812,-15.125 -3.6542,-33.8 -4.48016,-41.5 -0.82596,-7.7 -2.19244,-20.3 -3.03662,-28 -1.91684,-17.48405 -10.72671,-99.41139 -13.92549,-129.5 -3.26266,-30.68943 -3.5119,-34 -2.5597,-34 0.45444,0 1.1261,3.2625 1.49258,7.25 0.99718,10.84984 10.34931,96.45675 12.04427,110.25 0.81103,6.6 2.3679,20.775 3.45972,31.5 1.09182,10.725 2.45005,23.325 3.0183,28 1.50674,12.39607 7.23459,66.29158 8.2896,78 0.28096,3.11817 0.3807,3.22726 0.91422,1 0.32937,-1.375 1.33536,-8.86809 2.23552,-16.6513 3.65674,-31.61765 15.13454,-65.33699 29.59431,-86.94182 7.39482,-11.04885 19.7899,-23.05474 28.48072,-27.58645 16.64317,-8.67837 31.39963,-8.93308 48.06024,-0.82957 39.97459,19.44314 72.83295,86.21434 83.4161,169.50914 4.07433,32.06706 4.26472,39.69849 3.54871,142.24109 l -0.68598,98.2411 2.83047,-0.47892 c 1.55675,-0.2634 7.99021,-0.95665 14.29658,-1.54055 6.30636,-0.58389 11.56456,-1.16007 11.68488,-1.28038 0.12032,-0.12032 0.53226,-72.21057 0.91544,-160.20055 0.38317,-87.98999 0.86247,-160.16929 1.06512,-160.39846 1.14962,-1.3001 1.92196,2.66302 3.44755,17.69054 0.93392,9.19937 2.86317,27.52613 4.28721,40.72613 3.74508,34.71455 13.26308,126.48433 15.66113,151 1.12979,11.55 3.17027,32.25 4.53441,46 1.36413,13.75 3.35855,34.17528 4.43203,45.3895 1.07348,11.21423 2.15703,20.59475 2.40788,20.84561 0.52492,0.52491 31.71483,-1.513 35.84823,-2.34229 1.5125,-0.30345 2.75,-1.08157 2.75,-1.72916 0,-1.78481 -6.32788,-51.37046 -12.54561,-98.30814 -3.04948,-23.02054 -6.6538,-50.63052 -8.0096,-61.35552 -1.3558,-10.725 -3.58105,-27.825 -4.945,-38 -3.04556,-22.71979 -10.0089,-78.90619 -11.46378,-92.5 -0.58864,-5.5 -1.32257,-11.575 -1.63095,-13.5 -0.35607,-2.22272 -0.21483,-3.13506 0.38704,-2.5 0.52126,0.55 1.71059,7.3 2.64296,15 0.93237,7.7 2.33351,18.725 3.11364,24.5 0.78013,5.775 2.09675,16.35 2.92583,23.5 0.82907,7.15 2.63489,21.1 4.01292,31 1.37803,9.9 3.86672,28.98502 5.53042,42.41116 1.66371,13.42613 3.23772,25.35113 3.49781,26.5 0.49729,2.19663 1.09077,6.69863 10.47789,79.48289 3.62824,28.132 6.30673,45.67351 7.04364,46.12895 0.79544,0.4916 0.83454,0.85774 0.11813,1.10595 -0.68838,0.2385 -0.85953,2.40492 -0.4791,6.06435 l 0.59186,5.6933 11.86784,0.3067 c 6.52732,0.16868 11.86971,0.0817 11.87198,-0.1933 0.002,-0.275 -1.01107,-2.85482 -2.25189,-5.73293 l -2.25603,-5.23294 -6.19098,-0.0171 c -3.40504,-0.009 -6.4543,-0.44312 -6.77613,-0.96386 -0.35762,-0.57863 2.16396,-0.75509 6.48481,-0.45381 l 7.06995,0.49298 -0.53174,-107.29619 C 925.26346,648.78329 924.56076,584.3 923.99437,564.5 921.93955,492.66776 920.97992,450.11265 920.98986,431.2644 L 921,412.02879 l -5.75,-2.89667 c -7.55022,-3.80356 -52.46251,-24.10096 -77.75,-35.13788 -11,-4.80104 -47,-20.77065 -80,-35.48802 C 690.59042,308.66581 634.88329,283.99094 613,274.50151 605.025,271.04324 591.3,265.06927 582.5,261.22602 520.73156,234.24967 461.41331,208.79701 433.64716,197.35528 427.51622,194.82888 408.1,186.68698 390.5,179.26217 372.9,171.83735 351.525,162.93852 343,159.48698 334.475,156.03545 317.825,149.28997 306,144.49704 262.01835,126.67033 247.21883,120.711 193.5,99.196612 163.25,87.081489 133.1,75.067268 126.5,72.498343 95.255263,60.33692 36.363034,36.601345 35.225834,35.711744 34.525043,35.163534 34.139432,34.527235 34.368921,34.297745 35.194717,33.47195 299.55316,139.10501 360,164.4143 c 9.60401,4.02123 47.67487,19.84592 76,31.59047 18.08987,7.50067 34.89883,14.66946 71.5,30.49376 18.7,8.08484 40.075,17.30348 47.5,20.48586 32.68885,14.01058 94.54048,41.08411 107,46.83575 2.475,1.14253 28.8,12.85069 58.5,26.01815 29.7,13.16745 64.8,28.77618 78,34.68607 13.2,5.90988 27.825,12.41184 32.5,14.44879 4.675,2.03696 15.025,6.64654 23,10.24351 7.975,3.59697 22.825,10.24651 33,14.77676 10.175,4.53025 20.975,9.47633 24,10.99129 3.025,1.51495 6.50951,3.06753 7.74336,3.45016 l 2.24337,0.69569 -0.10554,-17.81528 c -0.058,-9.7984 -0.34997,-18.22291 -0.6487,-18.72113 -0.29874,-0.49821 -0.58576,-2.89776 -0.63783,-5.33232 l -0.0947,-4.42647 -21,-11.01859 C 886.95,345.75655 826.425,315.15344 764,283.80987 701.575,252.4663 639.9929,221.40546 627.15088,214.78578 614.30887,208.1661 602.72137,202.75 601.40088,202.75 599.5403,202.75 599,202.21552 599,200.375 c 0,-2.61354 0.95901,-3.01599 2.8,-1.175 0.93333,0.93333 1.22471,-3.45556 1.3112,-19.75 0.0612,-11.5225 0.26148,-38.725 0.44516,-60.45 0.28039,-33.163336 0.10213,-39.855305 -1.1112,-41.714817 C 600.62551,74.496428 600.63379,74 602.5,74 c 0.83333,0 1.5,-0.888889 1.5,-2 0,-1.1 0.45,-2 1,-2 0.55,0 1,1.473186 1,3.273746 0,3.092703 0.871,3.883954 15.75,14.30791 8.6625,6.068789 24.3,17.046024 34.75,24.393854 34.59142,24.32266 52.09856,36.51119 54.00143,37.59593 3.14975,1.79554 2.74428,3.09526 -1.00963,3.23639 -2.80548,0.10547 -3.50488,-0.21808 -3.27896,-1.51688 0.1944,-1.11766 -3.42752,-4.2756 -11.21284,-9.77641 -6.325,-4.469 -26.125,-18.41586 -44,-30.99302 C 633.125,97.944368 615.6875,85.672033 612.25,83.249668 l -6.25,-4.4043 0,14.464431 0,14.464431 27.75,17.97264 c 15.2625,9.88495 34.95,22.46973 43.75,27.96617 31.46868,19.6552 38.39135,24.55953 32.40637,22.95814 -1.3235,-0.35413 -2.99543,-0.65002 -3.71539,-0.65753 -0.71996,-0.008 -1.05262,-0.4285 -0.73925,-0.93554 0.31336,-0.50704 -8.20439,-6.46954 -18.92835,-13.25 C 675.79942,155.04765 653.5249,140.8375 637.02445,130.25 620.52399,119.6625 606.79331,111 606.51181,111 606.23031,111 606,116.74528 606,123.76728 l 0,12.76728 18.75,11.14824 c 18.50655,11.00349 48.17896,28.57888 74,43.83125 11.8333,6.98988 15.09296,9.48595 12.38782,9.48595 -0.92997,0 -6.68892,-3.36224 -49.63782,-28.98001 -35.4288,-21.13225 -55.51074,-33.01954 -55.78546,-33.02161 -0.118,-8.9e-4 -0.0786,6.27647 0.0876,13.9497 l 0.30211,13.95131 16.19789,8.93197 c 15.36497,8.47267 29.56991,16.23813 45.19789,24.70848 3.85,2.08669 14.52505,7.9596 23.72234,13.05091 9.19729,5.0913 17.59415,9.53362 18.6597,9.87181 C 712.44407,224.27572 714.79722,227 712.93757,227 711.741,227 640.3731,188.53167 616.25,174.88401 l -10.25,-5.79895 -0.1875,13.45747 c -0.10312,7.40161 -0.21563,14.60498 -0.25,16.00749 -0.0566,2.30859 1.59439,3.40451 17.4375,11.57504 C 678.85823,238.93197 707.09533,253 709.0578,253 c 1.22194,0 2.72132,0.64996 3.33196,1.44436 1.76539,2.29667 82.00323,41.87668 82.41139,40.65219 0.62822,-1.88466 3.04409,-1.1974 3.3793,0.96133 0.24855,1.60063 7.76301,5.84253 33.81955,19.09103 18.425,9.36823 45.54649,23.29218 60.26998,30.94212 C 906.99347,353.74096 919.25597,360 919.51998,360 919.78399,360 920,307.125 920,242.5 c 0,-76.39941 0.34422,-117.5 0.98408,-117.5 0.6412,0 0.90252,41.10696 0.75,117.97933 L 921.5,360.95866 l 5,-0.54712 c 4.96099,-0.54285 5.15554,-0.45296 24.93634,11.52067 C 962.40133,378.5695 971.44405,384 971.53128,384 c 0.0872,0 0.50435,-47.1375 0.92693,-104.75 0.42259,-57.6125 0.8923,-107.225 1.04381,-110.25 0.1515,-3.025 0.32552,-6.9625 0.38672,-8.75 0.0612,-1.7875 0.59854,-3.25 1.19411,-3.25 0.7665,0 0.9169,9.42187 0.5148,32.25 -0.31244,17.7375 -0.84707,69.15 -1.18807,114.25 l -0.62001,82 3.35522,1.92469 c 4.45823,2.55742 5.06758,3.68317 3.14408,5.8086 -0.88547,0.97844 -1.4252,1.95479 -1.19941,2.16967 0.2258,0.21489 5.58554,3.20258 11.91054,6.63932 12.9512,7.03715 61.0613,33.77352 71,39.45706 3.575,2.0444 16.625,9.35361 29,16.24269 12.375,6.88908 24.3,13.53926 26.5,14.77817 2.2,1.23892 7.825,4.39352 12.5,7.01022 4.675,2.61671 11.425,6.44176 15,8.50011 12.5019,7.19812 78.5807,45.35854 87.5,50.53111 l 9,5.21938 0.2565,-73.09705 c 0.164,-46.72674 0.615,-73.45546 1.25,-74.09052 0.658,-0.65793 0.9935,24.0658 0.9935,73.20655 0,48.8 0.3423,74.2 1,74.2 0.55,0 1.0146,0.5625 1.0325,1.25 0.018,0.6875 7.1054,5.49912 15.75,10.69249 23.0607,13.85403 58.7354,35.58995 66.2841,40.3857 3.6117,2.2945 18.0117,11.31999 32,20.05665 38.0385,23.75759 49.0291,30.85281 48.5435,31.33842 -0.624,0.62395 -43.3014,-25.45983 -93.1101,-56.90744 l -4,-2.52547 0.1527,20.13831 c 0.084,11.07607 -0.141,21.47324 -0.5,23.10483 -0.359,1.63158 -0.8777,-7.59232 -1.1527,-20.49755 l -0.5,-23.46407 -29,-17.80194 c -15.95,-9.79107 -30.7278,-18.91968 -32.8396,-20.28581 l -3.8395,-2.48387 0.4658,48.24987 c 0.2561,26.53744 0.9445,55.67488 1.5297,64.74988 0.5851,9.075 1.5583,28.875 2.1626,44 0.6043,15.125 1.5156,37.625 2.0252,50 0.5095,12.375 1.4798,36.7875 2.1561,54.25 0.8657,22.35003 1.5667,31.75 2.3679,31.75 0.626,0 3.7477,-0.52405 6.937,-1.16456 l 5.7988,-1.16456 -0.6631,-14.08544 c -0.3647,-7.74699 -0.8828,-17.01044 -1.1513,-20.58544 -0.2685,-3.575 -1.8145,-29.45 -3.4357,-57.5 -1.6212,-28.05 -3.4154,-57.75 -3.9872,-66 -0.5718,-8.25 -0.9706,-18.6 -0.8861,-23 l 0.1534,-8 0.7445,6 c 0.4094,3.3 0.8476,8.925 0.9737,12.5 l 0.2293,6.5 0.8987,-6 c 4.4034,-29.39942 11.3679,-44.9 20.1738,-44.9 6.8733,0 11.8176,7.57617 16.1869,24.80331 5.354,21.10931 5.7693,27.34244 6.2252,93.4438 l 0.4232,61.34712 2.1753,-0.58346 c 1.1965,-0.3209 2.7379,-0.58961 3.4254,-0.59712 0.9699,-0.0106 1.25,-6.2876 1.25,-28.01365 0,-15.4 0.3519,-28 0.782,-28 0.4301,0 0.7676,12.2625 0.75,27.25 -0.018,14.9875 0.193,33.2814 0.468,40.6531 0.4928,13.20884 0.5347,13.40836 2.8963,13.76605 l 2.3963,0.36295 -0.6301,-13.26605 c -0.3466,-7.29633 -0.8416,-21.59105 -1.1001,-31.76605 -0.6675,-26.28114 0.946,-14.11949 2.427,18.29245 0.6586,14.41415 1.2679,26.26671 1.354,26.33902 0.086,0.0723 1.5105,-0.0753 3.1652,-0.32807 l 3.0087,-0.45955 -0.01,-68.67192 c -0.01,-73.54798 0.2097,-77.51564 5.1516,-93.38187 7.0479,-22.62735 17.8981,-16.44689 22.3514,12.73168 0.6697,4.38804 1.455,9.55326 1.7452,11.47826 0.2901,1.925 0.7232,27.48883 0.9623,56.80852 0.4008,49.15804 0.5649,53.28368 2.1078,52.98951 1.3898,-0.26498 1.7578,-2.0105 2.1731,-10.30851 l 0.5,-9.98952 0.5957,15.5 c 0.9599,24.97632 0.9379,25.19866 -2.5957,26.23665 -1.65,0.48469 -8.9625,0.60508 -16.25,0.26753 L 1329,818.89047 v 3.96441 l 0,3.96442 -7.25,1.30182 c -4.5005,0.80811 -15.8613,1.31643 -29.9563,1.34035 l -22.7063,0.0385 -0.2937,4.92538 -0.2937,4.92538 -6,1.26042 c -3.3,0.69322 -9.6405,1.2893 -14.09,1.32462 -4.5937,0.0365 -11.458,0.92556 -15.8829,2.05727 -7.2913,1.86481 -9.2482,1.93026 -30.41,1.01705 -32.6778,-1.41018 -34.0733,-1.37951 -33.6657,0.73988 0.1851,0.9625 0.4968,4.675 0.6926,8.25 0.3451,6.30068 0.2793,6.5087 -2.144,6.78356 -1.375,0.15595 -8.125,1.44301 -15,2.86012 -10.9328,2.25353 -13.9606,2.49726 -24.1494,1.94399 -10.5772,-0.57435 -12.9703,-0.3525 -26,2.41033 -10.3405,2.1926 -15.8875,2.895 -19.8506,2.51363 -3.025,-0.29109 -15.4,-0.97268 -27.5,-1.51464 -12.1,-0.54197 -26.275,-1.24958 -31.5,-1.57247 -5.225,-0.3229 -17.2628,-0.88801 -26.75072,-1.2558 L 978.99856,865.5 l 7.2e-4,14.62117 7.2e-4,14.62117 -5.25,0.69529 c -2.8875,0.38241 -13.35,2.21348 -23.25,4.06903 -16.25868,3.04737 -19.03552,3.30639 -28.70418,2.6775 l -10.70418,-0.69624 -0.29582,3.40668 -0.29582,3.40667 -9,1.75032 c -4.95,0.96267 -14.8654,2.8997 -22.03422,4.3045 -11.32354,2.21896 -13.94846,2.422 -20,1.54701 -25.12552,-3.6329 -27.72396,-3.68263 -44.28982,-0.84765 -13.0927,2.24061 -16.79542,2.52509 -23.6024,1.81337 C 787.1331,916.40454 778.325,915.57123 772,915.01703 c -6.325,-0.5542 -13.75,-1.28311 -16.5,-1.61981 -2.75,-0.3367 -9.05,-0.90132 -14,-1.2547 l -9,-0.64252 -0.24623,-13 c -0.13542,-7.15 0.0896,-24.25 0.5,-38 l 0.74623,-25 12.5,5.2e-4 c 6.875,2.8e-4 21.63464,0.39728 32.79919,0.8822 l 20.2992,0.88168 -0.40253,-109.3822 c -0.42876,-116.51129 -0.31328,-113.49112 -5.60819,-146.67174 -13.18875,-82.64753 -50.52035,-146.16677 -91.22888,-155.2248 -12.28022,-2.73247 -27.68139,0.31114 -38.81966,7.6716 -10.78745,7.12865 -23.5071,22.38234 -30.93951,37.1034 -12.38402,24.52846 -20.96367,58.71929 -23.1967,92.44131 -1.07534,16.23919 -0.1594,28.0225 6.59152,84.79803 0.81748,6.875 2.86789,24.425 4.55647,39 1.68857,14.575 3.51366,30.325 4.05574,35 0.54209,4.675 1.87196,16.15 2.95527,25.5 1.08332,9.35 2.64779,23.3 3.47661,31 0.82881,7.7 2.41962,21.65 3.53511,31 1.1155,9.35 2.88417,24.425 3.93038,33.5 6.07461,52.69211 5.50836,49 7.51503,49 1.11047,0 1.48095,1.25081 1.48095,5 v 5 h 5.68228 c 3.12525,0 9.53775,0.43428 14.25,0.96508 4.71224,0.53079 14.64272,1.4234 22.06772,1.98358 31.47381,2.37453 42,3.43147 42,4.21725 0,1.03038 4.47516,1.24733 -33.75151,-1.63623 -18.01167,-1.35867 -36.68599,-2.75645 -41.49849,-3.10616 L 647,903.78768 v 33.90608 l 0,33.90609 -6.25,1.25569 c -3.4375,0.69063 -17.13615,3.56272 -30.44144,6.38241 l -24.19143,5.12673 -21.80857,-2.77601 c -11.99471,-1.52681 -28.01583,-3.6358 -35.60249,-4.68665 -15.13477,-2.09635 -15.79953,-2.03749 -44.62253,3.95102 -5.17905,1.07604 -9.90405,1.78784 -10.5,1.58178 -0.8771,-0.30329 -52.78438,-6.93029 -70.58354,-9.0114 -2.475,-0.28939 -5.9625,-0.74843 -7.75,-1.0201 l -3.25,-0.49395 -0.0997,-21.20468 C 391.84304,938.52007 391.46006,930.56345 391,932 c -0.78092,2.43843 -0.80309,2.44374 -0.90032,0.21556 -0.11472,-2.62916 -0.15793,-2.62765 -23.59968,0.82472 -7.15,1.05301 -17.95,2.59005 -24,3.41564 -6.05,0.82559 -18.425,2.64142 -27.5,4.03518 -19.21706,2.9514 -25.82676,3.93432 -67.5,10.03786 -17.05,2.49718 -41.35,6.08588 -54,7.9749 -28.80439,4.30134 -54.73396,8.0892 -69,10.07972 -6.05,0.84414 -11.81266,1.65218 -12.80592,1.79564 -1.63575,0.23626 -1.83616,1.71483 -2.12685,15.69081 -0.17651,8.48648 -0.37635,18.01747 -0.44408,21.17997 -0.0752,3.511 -0.56014,5.75 -1.24536,5.75 -0.82749,0 -0.95841,-41.29656 -0.49852,-157.25 z M 585,941.62917 v -40.37084 l -5.75,-0.63399 c -7.68599,-0.84746 -53.56818,-4.65505 -59.25,-4.91693 l -4.5,-0.20741 -0.30643,38.65257 -0.30643,38.65257 3.80643,0.59708 c 2.09354,0.3284 12.80643,1.75335 23.80643,3.16655 11,1.4132 24.275,3.16031 29.5,3.88246 5.225,0.72216 10.2875,1.36605 11.25,1.43089 1.63971,0.11045 1.75,-2.4263 1.75,-40.25295 z m 22,35.98107 c 9.075,-1.91895 21.3375,-4.4934 27.25,-5.72101 L 645,969.65721 v -32.6286 c 0,-24.04448 -0.3157,-32.94431 -1.2,-33.82861 -0.93333,-0.93333 -0.93333,-1.2 0,-1.2 0.73333,0 1.2,-1.55556 1.2,-4 0,-2.21307 -0.48553,-4 -1.08684,-4 -2.16308,0 -47.45955,5.53317 -53.66316,6.5552 l -3.25,0.53543 v 40.52207 c 0,38.12303 0.10361,40.49142 1.75,40.0043 0.9625,-0.28477 9.175,-2.08781 18.25,-4.00676 z M 474.04592,948.25 c 0.0252,-17.4625 0.13775,-35.56025 0.25,-40.21723 l 0.20408,-8.46722 -4,-0.7416 c -3.39397,-0.62923 -18.14446,-1.83364 -67.75,-5.53194 l -7.75,-0.5778 -0.225,30.1429 c -0.12375,16.57859 -0.23625,34.06635 -0.25,38.86168 l -0.025,8.7188 27,3.20922 c 14.85,1.76507 31.5,3.85966 37,4.65465 5.5,0.79499 11.2375,1.50238 12.75,1.57199 L 474,980 Z m 18.87201,28.665 c 8.57014,-1.69675 16.59457,-3.28033 17.83207,-3.51905 l 2.25,-0.43405 0.2,-34.98095 c 0.11,-19.23952 0.2225,-36.66845 0.25,-38.73095 0.0449,-3.36767 -0.20489,-3.7417 -2.45,-3.66859 -4.30157,0.14008 -28.33949,2.46072 -31.75,3.06517 l -3.25,0.576 v 40.38871 C 476,961.82508 476.30057,980 476.66793,980 c 0.36737,0 7.67987,-1.38825 16.25,-3.085 z M 210.5,954.01421 c 19.25,-2.81762 41.525,-6.0513 49.5,-7.18596 7.975,-1.13466 14.79824,-2.34769 15.16275,-2.69563 0.36451,-0.34794 0.98173,-88.83262 1.37158,-196.63262 0.38986,-107.8 0.86463,-196.27107 1.05504,-196.60239 0.19041,-0.33131 3.1732,-0.87433 6.62842,-1.20671 53.18502,-5.11616 103.81779,-9.52355 113.78221,-9.90431 l 7.5,-0.28659 0.2999,5.75 c 0.16495,3.1625 0.7372,5.75 1.27166,5.75 0.53447,0 10.52451,-0.88988 22.2001,-1.97751 11.67559,-1.08764 26.79594,-2.41774 33.60079,-2.95579 6.80485,-0.53805 12.5766,-1.18242 12.82611,-1.43192 C 476.64625,543.68708 473.82401,512.84666 471.43095,498 463.32171,447.68986 447.05657,401.2658 424.44049,363.87953 405.89201,333.21735 381.8982,308.1925 355.2329,291.69802 328.85552,275.38164 307.0095,269 277.53162,269 c -16.94568,0 -27.83489,1.70672 -42.97265,6.73532 C 173.1367,296.13912 127.8664,356.22701 114.56873,435 c -3.16748,18.76353 -3.47094,40.20237 -4.04202,285.55335 l -0.57737,248.05335 32.77533,-4.73478 C 160.7511,961.26779 191.25,956.83182 210.5,954.01421 Z M 111,923.5 c 0,-0.275 0.225,-0.5 0.5,-0.5 0.275,0 0.5,0.225 0.5,0.5 0,0.275 -0.225,0.5 -0.5,0.5 -0.275,0 -0.5,-0.225 -0.5,-0.5 z m 174.5,19.55773 c 3.3,-0.49613 17.25,-2.5342 31,-4.52905 13.75,-1.99484 26.0125,-3.87866 27.25,-4.18624 l 2.25,-0.55926 0.003,-36.64159 c 0.004,-52.30336 0.9621,-254.44028 1.42528,-300.64159 l 0.39099,-39 10.84053,-1.13246 c 5.96229,-0.62285 18.60303,-1.69971 28.09053,-2.39301 L 404,552.71399 V 546.857 c 0,-3.67614 -0.41941,-5.857 -1.12639,-5.857 -2.48369,0 -92.28688,8.30349 -102.37361,9.46579 -1.65,0.19013 -6.87729,0.66132 -11.6162,1.04708 l -8.6162,0.70139 -0.63613,128.14287 c -0.34987,70.47858 -0.91973,158.63037 -1.26635,195.89287 -0.36249,38.96941 -0.2553,67.74146 0.25233,67.72989 0.4854,-0.0111 3.58255,-0.42603 6.88255,-0.92216 z M 280,870.5 c 0,-0.275 0.225,-0.5 0.5,-0.5 0.275,0 0.5,0.225 0.5,0.5 0,0.275 -0.225,0.5 -0.5,0.5 -0.275,0 -0.5,-0.225 -0.5,-0.5 z m 0,-4.5 c 0,-0.73333 0.3,-1.03333 0.66667,-0.66667 0.36666,0.36667 0.36666,0.96667 0,1.33334 C 280.3,867.03333 280,866.73333 280,866 Z m 0,-31 c 0,-0.73333 0.3,-1.03333 0.66667,-0.66667 0.36666,0.36667 0.36666,0.96667 0,1.33334 C 280.3,836.03333 280,835.73333 280,835 Z m 0.15789,-7 c 0,-1.375 0.22698,-1.9375 0.50439,-1.25 0.27741,0.6875 0.27741,1.8125 0,2.5 -0.27741,0.6875 -0.50439,0.125 -0.50439,-1.25 z m 56.60377,-270.70726 c 1.24391,-0.23919 3.04391,-0.23011 4,0.0202 0.95609,0.25029 -0.0617,0.446 -2.26166,0.4349 -2.2,-0.0111 -2.98225,-0.21589 -1.73834,-0.45508 z M 307.5,554.92052 c -8.8,-1.0342 -16.675,-2.0622 -17.5,-2.28444 -3.33411,-0.89816 6.94079,-0.54889 13,0.44189 3.575,0.58457 12.125,1.65266 19,2.37353 7.34978,0.77066 10.2339,1.31865 7,1.33003 -3.025,0.0107 -12.7,-0.82681 -21.5,-1.86101 z m 58,376.59456 c 6.6,-0.85375 15.19366,-2.04454 19.09701,-2.6462 l 7.09702,-1.09392 0.66193,-17.5458 c 0.39364,-10.43409 1.11326,-18.08961 1.77543,-18.88748 C 394.80407,890.53115 397.32366,890 400.49584,890 h 5.25095 l 0.63119,-112.75 c 0.34716,-62.0125 0.90784,-130.31415 1.24596,-151.78144 l 0.61475,-39.03144 -2.61934,-3.11292 C 403.09671,580.32622 403,579.74587 403,567.60564 V 555 l -3.75,0.087 c -2.0625,0.0478 -14.00761,1.06034 -26.5447,2.25 L 349.9106,559.5 349.46776,638 c -0.24357,43.175 -0.68253,127.47525 -0.97547,187.33388 l -0.53261,108.83389 2.77016,-0.55021 C 352.25343,933.31495 358.9,932.36883 365.5,931.51508 Z M 405.28601,720.5 c 0.008,-2.75 0.20172,-3.75631 0.43157,-2.23625 0.22986,1.52006 0.22371,3.77006 -0.0136,5 -0.23736,1.22994 -0.42542,-0.0137 -0.41792,-2.76375 z M 405,714.5 c 0,-0.275 0.225,-0.5 0.5,-0.5 0.275,0 0.5,0.225 0.5,0.5 0,0.275 -0.225,0.5 -0.5,0.5 -0.275,0 -0.5,-0.225 -0.5,-0.5 z m 0.30987,-7 c 0.006,-3.3 0.1923,-4.52944 0.41486,-2.73209 0.22256,1.79735 0.21797,4.49735 -0.0102,6 -0.22818,1.50265 -0.41027,0.0321 -0.40466,-3.26791 z m -0.0239,-11 c 0.008,-2.75 0.20172,-3.75631 0.43157,-2.23625 0.22986,1.52006 0.22371,3.77006 -0.0136,5 -0.23736,1.22994 -0.42542,-0.0137 -0.41792,-2.76375 z M 405,688.5 c 0,-0.275 0.225,-0.5 0.5,-0.5 0.275,0 0.5,0.225 0.5,0.5 0,0.275 -0.225,0.5 -0.5,0.5 -0.275,0 -0.5,-0.225 -0.5,-0.5 z m 0,-2 c 0,-0.275 0.225,-0.5 0.5,-0.5 0.275,0 0.5,0.225 0.5,0.5 0,0.275 -0.225,0.5 -0.5,0.5 -0.275,0 -0.5,-0.225 -0.5,-0.5 z m 393.97598,191.15044 0.0576,-38.34957 -12.76679,-0.63356 c -7.02174,-0.34847 -21.4293,-0.93443 -32.0168,-1.30215 l -19.25,-0.66858 -0.2451,26.40171 c -0.39019,42.03143 -0.3245,46.12804 0.7451,46.46677 0.55,0.17418 14.275,1.49277 30.5,2.9302 16.225,1.43743 29.95,2.77851 30.5,2.98018 0.55,0.20167 1.31913,0.40219 1.70918,0.44561 0.39005,0.0434 0.73511,-17.17835 0.7668,-38.27061 z m 10.05292,36.42231 c 3.51052,-0.56535 9.66514,-1.75817 13.67693,-2.65071 L 830,909.79924 v -36.5179 -36.51789 l -8.75,0.63927 c -4.8125,0.35161 -11.3375,0.89902 -14.5,1.21647 l -5.75,0.57718 v 38.46083 c 0,21.15346 0.37038,38.23193 0.82307,37.95215 0.45269,-0.27978 3.69531,-0.97125 7.20583,-1.5366 z M 865,876.51905 V 839.0381 l -2.25,-0.46245 c -1.2375,-0.25435 -8.6625,-0.74456 -16.5,-1.08936 L 832,836.85939 v 36.52499 36.52499 l 3.64649,0.68409 c 7.64832,1.43483 21.02661,3.19187 25.10351,3.29698 L 865,914 Z m 20,34.56356 c 7.975,-1.59501 16.4125,-3.20565 18.75,-3.57921 l 4.25,-0.6792 0.0897,-25.6621 c 0.0494,-14.11415 0.19719,-30.2906 0.32852,-35.94766 l 0.23878,-10.28556 -4.07852,0.48634 c -2.24319,0.26749 -11.61603,1.04054 -20.82853,1.7179 L 867,838.36469 v 37.81765 c 0,35.35346 0.11403,37.81709 1.75,37.80897 0.9625,-0.005 8.275,-1.31369 16.25,-2.9087 z m 46,-81.2051 c -0.275,-0.34237 -5.7875,-0.88837 -12.25,-1.21333 L 907,828.07335 v 2.34669 c 0,1.51611 0.71743,2.53431 2.027,2.87677 1.99084,0.52062 2.02205,1.11015 1.75,33.05523 l -0.277,32.52517 7.5,0.61073 c 4.125,0.3359 8.625,0.70102 10,0.81139 l 2.5,0.20067 0.5,-35 c 0.275,-19.25 0.275,-35.28012 0,-35.62249 z m 26.44548,66.12393 c 9.87002,-1.68249 18.07091,-3.1845 18.22421,-3.33779 0.45247,-0.45247 0.47484,-65.85245 0.0227,-66.30461 -0.22724,-0.22724 -5.53848,0.0254 -11.80277,0.56136 -6.26428,0.53599 -15.7771,1.26516 -21.1396,1.62039 l -9.75,0.64586 v 35.82607 35.82607 l 3.25,-0.88914 c 1.7875,-0.48902 11.32547,-2.26572 21.19548,-3.94821 z M 584.99718,896.75 c -0.002,-0.6875 -0.4571,-5.3 -1.01234,-10.25 -1.59286,-14.20041 -2.7871,-26.055 -5.49039,-54.5 -2.5183,-26.49842 -10.86953,-112.79186 -14.56496,-150.5 -1.07801,-11 -2.62776,-27.425 -3.44388,-36.5 -1.99484,-22.18176 -5.29852,-56.43581 -6.51014,-67.5 -0.54207,-4.95 -2.32544,-22.725 -3.96304,-39.5 -4.96568,-50.86638 -8.98039,-92.19145 -9.52066,-98 -0.6037,-6.4906 -3.42245,-32.97122 -7.50441,-70.5 -1.61522,-14.85 -3.84214,-35.55 -4.94871,-46 -1.10657,-10.45 -2.17553,-20.35 -2.37546,-22 -0.19994,-1.65 -0.43718,1.05 -0.52721,6 -0.09,4.95 -1.05651,46.35 -2.14776,92 -1.09125,45.65 -2.41347,110.225 -2.93827,143.5 -0.52481,33.275 -1.19853,75.575 -1.49716,94 -0.29863,18.425 -0.82414,57.575 -1.1678,87 -1.05875,90.65366 -1.92593,168.49057 -1.8794,168.69164 0.10353,0.44734 55.63259,5.07334 62.24441,5.18544 5.20022,0.0882 7.2492,-0.23049 7.24718,-1.12708 z M 475.36299,791.25 c 0.33389,-58.1625 0.81184,-129.08314 1.06211,-157.60142 l 0.45503,-51.85142 -9.19006,0.66023 c -5.05454,0.36313 -13.69007,1.06175 -19.19007,1.5525 -5.5,0.49074 -16.4125,1.19696 -24.25,1.56937 l -14.25,0.67711 -0.0305,48.12181 c -0.0168,26.467 -0.22875,52.84682 -0.47105,58.62182 -0.2423,5.775 -0.68274,52.85132 -0.97876,104.61405 l -0.53821,94.11404 12.25926,0.72074 c 9.29683,0.54657 41.25165,3.20199 53.38721,4.43643 0.82745,0.0842 1.28969,-28.0585 1.73504,-105.63526 z M 493.5,895.06802 c 4.95,-0.53559 11.5875,-1.25239 14.75,-1.59287 l 5.75,-0.61906 0.12384,-38.67805 c 0.0681,-21.27292 0.24354,-40.70304 0.38984,-43.17804 0.1463,-2.475 0.54153,-35.1 0.8783,-72.5 0.33677,-37.4 0.9057,-86.51073 1.26429,-109.13496 l 0.65199,-41.13497 -5.40413,-0.68889 c -7.25385,-0.92469 -29.00569,-4.50193 -30.98977,-5.09647 -1.70797,-0.51181 -2.14003,27.6735 -3.44226,224.55529 -0.28194,42.625 -0.71394,80.33789 -0.96,83.80642 l -0.44739,6.30642 4.21765,-0.5355 c 2.3197,-0.29453 8.26764,-0.97372 13.21764,-1.50932 z M 480,633.5 c 0,-0.275 0.225,-0.5 0.5,-0.5 0.275,0 0.5,0.225 0.5,0.5 0,0.275 -0.225,0.5 -0.5,0.5 -0.275,0 -0.5,-0.225 -0.5,-0.5 z M 1088,844 v -25 h -8.8419 c -4.863,0 -14.988,-0.29476 -22.5,-0.65503 L 1043,817.68994 V 842.34497 867 l 10.75,0.11746 c 8.8161,0.0963 23.5598,0.87556 32.5,1.7177 1.6244,0.15301 1.75,-1.62951 1.75,-24.83516 z m 13.2606,21.99348 c 5.0817,-1.10359 10.2519,-2.23716 11.4894,-2.51905 l 2.25,-0.51253 v -23.05291 -23.0529 l -5.25,0.54208 c -14.8717,1.53556 -18.75,1.7006 -18.75,0.79792 0,-0.5297 3.0375,-1.25966 6.75,-1.62213 3.7125,-0.36247 9.225,-0.91029 12.25,-1.21738 l 5.5,-0.55834 v -11.14912 c 0,-33.47736 1.6189,-271.65873 2.0197,-297.14912 0.2595,-16.5 0.1362,-30.47529 -0.274,-31.0562 -0.4101,-0.5809 -3.6707,-2.6612 -7.2457,-4.62288 -3.575,-1.96168 -13.7,-7.60513 -22.5,-12.54099 -8.8,-4.93586 -34,-18.98153 -56,-31.21259 -22,-12.23107 -43.09706,-23.99984 -46.88235,-26.15282 -3.78529,-2.15299 -7.16029,-3.91323 -7.5,-3.91164 -0.33971,0.002 -1.51765,1.35028 -2.61765,2.99712 -1.1,1.64684 -2.45,2.99581 -3,2.99771 -0.65796,0.002 -1.08203,32.58269 -1.23983,95.25288 l -0.23983,95.24941 2.00353,-11 c 5.88521,-32.31176 16.29094,-57.36033 29.78303,-71.69345 13.4415,-14.27936 27.4292,-16.78715 40.7619,-7.30798 23.239,16.52234 39.8764,60.51672 45.9066,121.39153 1.2671,12.79047 1.5246,34.62285 1.5246,129.25 0,76.03514 0.3357,113.8599 1.0106,113.8599 0.5558,0 5.1683,-0.90293 10.25,-2.00652 z M 1041.2325,841.25 1041.5,816.5 l 9,0.0144 c 4.95,0.008 15.3,0.21398 23,0.45787 l 14,0.44344 0.3096,-86.45787 c 0.3365,-93.94537 -0.1057,-105.12079 -5.3602,-135.45787 -8.464,-48.86775 -26.2715,-84.71362 -46.226,-93.05112 -1.9072,-0.79689 -6.4502,-1.44448 -10.0955,-1.43911 -9.0246,0.0133 -15.0056,2.9187 -22.3478,10.85578 -15.95416,17.24699 -26.34382,46.44304 -31.8439,89.48486 -1.70003,13.30386 -1.96865,25.0722 -2.57939,113.00286 l -0.68174,98.15246 5.16247,6.20333 5.16246,6.20333 v 19.29508 19.29509 l 12.25,0.35948 c 6.7375,0.19771 17.425,0.69052 23.75,1.09512 6.325,0.40461 14.7546,0.80477 18.7325,0.88924 l 7.2326,0.1536 z m 96.7595,21.5 c -0.015,-2.30748 -3.9907,-85.94135 -5.4791,-115.25 -0.8099,-15.95 -1.7223,-34.625 -2.0275,-41.5 -0.6152,-13.85854 -5.1857,-103.33567 -6.002,-117.5 -2.9963,-51.99491 -4.6162,-78.25131 -4.9047,-79.5 -0.1907,-0.825 -0.4036,27.3 -0.4732,62.5 -0.07,35.2 -0.3767,82.9 -0.6826,106 -0.3058,23.1 -0.6386,74.26848 -0.7395,113.70773 l -0.1834,71.70773 5.5,0.35319 c 12.7379,0.81797 15.0001,0.73971 14.992,-0.51865 z m 17.508,-1.88881 c 6.05,-1.19255 11.1194,-2.25609 11.2653,-2.36341 0.2503,-0.18403 -1.5517,-25.73351 -3.7732,-53.49778 -2.7137,-33.91689 -10.2915,-139.50675 -12.4515,-173.5 -0.8387,-13.2 -2.4364,-36.825 -3.5505,-52.5 -1.114,-15.675 -2.5034,-35.25 -3.0875,-43.5 -0.5841,-8.25 -1.3636,-22.19198 -1.7323,-30.98218 L 1141.5,488.53564 1130.75,482.30347 1120,476.0713 v 4.31913 c 0,2.37553 0.4408,9.89698 0.9795,16.71435 0.8843,11.18993 3.0819,47.51529 4.531,74.89522 0.3056,5.775 0.9952,17.25 1.5323,25.5 0.8999,13.82121 5.4917,105.36192 7.9507,158.5 0.5727,12.375 1.2545,26.55 1.5151,31.5 0.2606,4.95 0.9362,18.45 1.5013,30 0.5651,11.55 1.2321,24.375 1.4824,28.5 0.2503,4.125 0.4669,9.91498 0.4814,12.86663 0.025,5.072 0.1498,5.33359 2.2763,4.76474 1.2375,-0.33105 7.2,-1.57762 13.25,-2.77018 z m 66.6825,-41.15017 -0.3175,-9.61456 -15.5187,-0.29823 c -8.5353,-0.16403 -15.7049,-0.11073 -15.9325,0.11844 -0.2276,0.22916 -0.4138,7.75524 -0.4138,16.7246 v 16.30794 l 15.75,0.2754 15.75,0.27539 0.5,-7.0872 c 0.275,-3.89797 0.3571,-11.41376 0.1825,-16.70178 z m 14.5209,21.59924 4.2034,-0.55987 0.2966,-15.96128 c 0.1631,-8.77871 0.2087,-16.04799 0.1012,-16.15397 -0.1075,-0.10597 -3.9325,0.21963 -8.5,0.72357 l -8.3046,0.91624 -0.3156,9.11253 c -0.1736,5.01188 -0.018,12.42688 0.3461,16.47776 l 0.6617,7.36525 3.6539,-0.68018 c 2.0097,-0.3741 5.5454,-0.93212 7.8573,-1.24005 z M 1188.2258,825.25 1188.5,808.5 l 16.75,-0.27418 16.75,-0.27418 v -68.73195 c 0,-72.32999 -0.3935,-80.70281 -4.8807,-103.85071 -4.2733,-22.04435 -13.8091,-43.97965 -21.753,-50.03879 -5.3671,-4.09364 -12.8146,-4.23687 -18.1807,-0.34965 -9.2251,6.68261 -15.9928,22.21012 -21.3117,48.89662 -1.7483,8.77187 -2.0021,12.53953 -1.4561,21.62284 0.9822,16.34368 5.36,76.04291 8.983,122.5 0.7935,10.175 2.2331,28.7375 3.199,41.25 l 1.7563,22.75 h 9.7978 9.7977 z m 62.3946,-5.5 c -0.3683,-11.1375 -1.0856,-29.475 -1.594,-40.75 -0.5084,-11.275 -1.1864,-27.7 -1.5067,-36.5 -1.7858,-49.07152 -3.4843,-84.79648 -4.0583,-85.35954 -0.3591,-0.35225 -0.5016,40.64704 -0.3167,91.10954 l 0.3362,91.75 h 3.9046 3.9045 z m -386.62998,15 c -0.005,-0.6875 -0.89235,-9.87017 -1.97131,-20.40594 -1.07895,-10.53576 -3.09996,-30.78576 -4.49114,-45 -2.47795,-25.31831 -6.45668,-64.48276 -8.46695,-83.34406 -0.55689,-5.225 -1.71396,-16.025 -2.57126,-24 -0.8573,-7.975 -1.78783,-16.975 -2.06784,-20 -0.28002,-3.025 -1.15374,-11.575 -1.94161,-19 -0.78786,-7.425 -2.5859,-24.975 -3.99563,-39 -5.3867,-53.59061 -5.22631,-53.72513 -5.36519,4.5 -0.0682,28.6 -0.42177,95.74224 -0.78568,149.20499 l -0.66164,97.20498 7.91392,0.34377 c 19.73924,0.85745 24.41402,0.76096 24.40433,-0.50374 z M 1301,816 v -12 h -11 -11 v 12 12 h 11 11 z m 7.0818,11 c 1.7826,0 1.9182,-0.83436 1.9182,-11.7992 v -11.7992 l -3.5,0.40861 -3.5,0.4086 v 11.99758 c 0,10.52939 0.1936,11.92331 1.5818,11.3906 0.87,-0.33385 2.445,-0.60699 3.5,-0.60699 z M 955,825.51273 c 10.725,-0.8015 19.64538,-1.46976 19.82306,-1.48501 0.17768,-0.0152 -1.39732,-2.29749 -3.5,-5.07165 L 967.5,813.91215 961,814.42292 c -3.575,0.28093 -12.48438,0.81915 -19.79862,1.19605 -9.01937,0.46476 -13.15739,1.03854 -12.85972,1.78315 3.3271,8.32271 4.06025,9.59619 5.51692,9.58289 0.90278,-0.008 10.41642,-0.67077 21.14142,-1.47228 z M 1277.2192,814.75 1277.5,802.5 l 11.8364,-0.28248 11.8364,-0.28249 -0.4608,-60.21751 c -0.3733,-48.78461 -0.7769,-62.49584 -2.1258,-72.21752 -2.9983,-21.61021 -7.7301,-36.81773 -13.146,-42.25 -3.9231,-3.935 -5.3594,-4.0303 -9.4073,-0.62421 -4.0236,3.38558 -6.6705,8.65811 -9.1394,18.20513 -5.4154,20.94116 -6.7943,39.52467 -4.9838,67.16908 2.0856,31.84371 3.9987,64.20509 5.1137,86.5 1.5003,29.99738 1.1855,28.5 5.9911,28.5 h 3.9239 z M 1299,771.5 c 0,-0.275 0.225,-0.5 0.5,-0.5 0.275,0 0.5,0.225 0.5,0.5 0,0.275 -0.225,0.5 -0.5,0.5 -0.275,0 -0.5,-0.225 -0.5,-0.5 z m 35.9565,42.62733 c -0.093,-1.44503 -0.1207,-5.66483 -0.062,-9.37733 L 1335,798 h 8.5 c 5.53,0 8.5,0.38546 8.5,1.10318 0,0.73972 -2.5533,0.98682 -7.75,0.75 l -7.75,-0.35318 0.1689,9 0.1689,9 8.3311,0.28522 8.3311,0.28523 -0.1064,-61.78523 c -0.1098,-63.77892 -0.5545,-72.67732 -4.4229,-88.50349 -2.8881,-11.81596 -5.9232,-16.56634 -9.7987,-15.33631 -4.1279,1.31013 -9.2022,17.68111 -10.906,35.18499 -0.9171,9.42175 -0.995,126.18091 -0.086,128.45999 0.4545,1.13907 1.5299,1.45899 3.7897,1.12733 2.6792,-0.39322 3.1297,-0.85939 2.9866,-3.0904 z M 1360,808.02383 c 0,-4.34819 -0.4137,-8.16149 -0.9194,-8.474 -2.1632,-1.33693 -3.778,2.46791 -3.9797,9.37719 -0.2408,8.24591 0.2228,9.50529 2.9598,8.0405 1.668,-0.8927 1.9393,-2.14381 1.9393,-8.94369 z m -400.41538,4.37821 7.08462,-0.54168 0.67335,-182.18018 C 967.71294,529.48108 968.27775,437.375 968.59773,425 l 0.58178,-22.5 -15.83976,-8.7476 c -8.71186,-4.81118 -18.20482,-10.13731 -21.09547,-11.83584 l -5.25572,-3.08825 0.0404,217.66057 0.0404,217.66058 12.71532,-0.60287 c 6.99343,-0.33158 15.9034,-0.84663 19.79994,-1.14455 z M 965.19495,621.5 c 0.0204,-1.65 0.2445,-2.20394 0.49804,-1.23097 0.25354,0.97297 0.23687,2.32297 -0.0371,3 -0.27393,0.67703 -0.48137,-0.11903 -0.46099,-1.76903 z M 1241,806.28256 c 0.275,-0.24677 0.6494,-58.83314 0.8321,-130.19195 l 0.3321,-129.74328 -22.3321,-12.8552 c -57.5414,-33.12301 -74.4332,-42.77845 -75.6864,-43.26279 -1.1056,-0.42727 -1.2437,1.20261 -0.7516,8.87363 0.3316,5.16837 1.0674,17.04703 1.6353,26.39703 0.5678,9.35 1.4486,21.95 1.9573,28 0.5087,6.05 1.1865,15.5 1.5063,21 0.3198,5.5 0.9929,15.175 1.4957,21.5 0.5029,6.325 1.2132,16.225 1.5786,22 1.0559,16.68922 1.5478,17.92645 3.3146,8.33778 1.5321,-8.31505 5.8567,-20.89957 10.0061,-29.11736 5.7045,-11.29788 13.8856,-18.14341 21.749,-18.19846 4.8063,-0.0337 12.1257,5.5013 17.059,12.90006 8.461,12.68943 14.8579,33.55023 18.576,60.57798 2.0925,15.21098 2.2017,19.43414 2.2145,85.63837 l 0.014,69.63837 8,-0.52275 c 4.4,-0.28752 8.225,-0.72466 8.5,-0.97143 z M 1153,634.5 c 0,-0.275 -0.225,-0.5 -0.5,-0.5 -0.275,0 -0.5,0.225 -0.5,0.5 0,0.275 0.225,0.5 0.5,0.5 0.275,0 0.5,-0.225 0.5,-0.5 z M 969.66228,594.75 c -0.27741,-0.6875 -0.50439,-0.125 -0.50439,1.25 0,1.375 0.22698,1.9375 0.50439,1.25 0.27741,-0.6875 0.27741,-1.8125 0,-2.5 z m -452.37986,-25.42772 0.40414,-15.17771 -5.09328,-0.64234 c -4.40728,-0.55582 -27.29708,-4.7271 -33.09328,-6.03069 -1.1,-0.2474 -18.3125,1.00595 -38.25,2.78522 L 405,553.4918 v 12.61924 c 0,11.40518 0.2072,12.88265 2.15367,15.35719 2.08336,2.64857 2.38532,2.71817 9.25,2.13221 12.08345,-1.03142 19.57941,-1.49072 34.09633,-2.08919 7.7,-0.31743 16.5875,-0.8315 19.75,-1.14238 l 5.75,-0.56524 v -7.75094 c 0,-4.26301 0.31663,-11.30633 0.70362,-15.65181 0.97381,-10.93483 2.02394,-5.73821 2.17807,10.77822 L 479,579.8582 l 5.25,1.07665 c 2.8875,0.59216 8.625,1.50649 12.75,2.03185 9.4906,1.20871 18.1769,2.87498 18.92373,3.63007 0.81749,0.82655 0.90703,-0.31181 1.35869,-17.27449 z M 925.24249,438.74963 c 0.14163,-32.86271 0.0325,-59.74332 -0.24249,-59.73469 -2.37741,0.0746 -2.71398,2.55986 -2.50331,18.48506 0.69846,52.79852 2.03724,118.67073 2.2458,110.5 0.13336,-5.225 0.35836,-36.38767 0.5,-69.25037 z m 47.72233,-39.68389 c 1.5113,-2.8239 1.43034,-2.95276 -3.21482,-5.11641 -2.3375,-1.08878 -5.6,-2.80056 -7.25,-3.80395 C 954.97874,385.57157 934.20939,374 933.5213,374 c -0.42141,0 -0.23924,0.63494 0.40481,1.41097 1.63251,1.96705 -0.32204,2.98268 -2.99109,1.55425 -1.15847,-0.61999 -2.32721,-0.90636 -2.5972,-0.63637 -0.27,0.26999 2.80605,2.39383 6.83564,4.71964 4.0296,2.3258 9.80154,5.67118 12.82654,7.43417 16.17271,9.42556 18.77749,10.66327 17.39869,8.26734 -0.39564,-0.6875 -0.45969,-1.025 -0.14235,-0.75 0.31735,0.275 0.50199,0.81813 0.41033,1.20695 -0.22165,0.94015 3.51066,3.721 5.04815,3.76125 0.66815,0.0175 1.68065,-0.83862 2.25,-1.90246 z M 979,391.85823 c 0,-0.36337 -1.4625,-1.54077 -3.25,-2.61643 -1.7875,-1.07567 -12.01894,-7.25008 -22.73654,-13.72093 -10.7176,-6.47085 -19.96228,-11.94774 -20.54374,-12.17086 -0.5899,-0.22637 -1.15718,1.07897 -1.2834,2.95319 -0.21399,3.17733 0.16672,3.59451 7.04373,7.71844 3.99847,2.39777 13.96406,8.06726 22.14575,12.59888 12.64444,7.00342 15.15692,8.06374 16.75,7.06885 C 978.15661,393.04561 979,392.2216 979,391.85823 Z M 927.10492,374.25 C 927.82476,372.30011 927.6064,372 925.46778,372 923.4834,372 923,372.50407 923,374.57332 c 0,3.22231 2.87972,2.99549 4.10492,-0.32332 z M 932,373.55902 c 0,-0.24254 -0.51953,-0.76207 -1.15451,-1.15451 -0.7153,-0.44208 -0.88306,-0.27432 -0.44098,0.44098 0.71244,1.15275 1.59549,1.54767 1.59549,0.71353 z M 929.36971,367.75 c 1.37377,-5.12618 0.91271,-5.89083 -3.11971,-5.17402 -4.81136,0.85527 -5.65029,1.693 -4.85773,4.8508 0.53369,2.12641 1.23001,2.57322 4.01015,2.57322 2.6436,0 3.49349,-0.48201 3.96729,-2.25 z M 390,938 c 0,-0.73333 0.3,-1.03333 0.66667,-0.66667 0.36666,0.36667 0.36666,0.96667 0,1.33334 C 390.3,939.03333 390,938.73333 390,938 Z m 976,-121.24153 3.5,-0.98879 -0.3534,-47.95623 c -0.46,-62.40044 1.1994,-84.5535 7.1274,-95.15181 4.1769,-7.4679 7.2682,-7.18268 10.8987,1.00562 4.77,10.75833 5.8003,25.82227 5.8459,85.47407 0.021,27.97227 0.2806,50.85867 0.5759,50.85867 0.2953,0 1.4557,-0.49169 2.5786,-1.09264 1.3494,-0.72217 2.3778,-0.75647 3.0331,-0.10116 1.6236,1.62362 -4.7285,2.63765 -16.7062,2.66692 l -11,0.0269 0.3362,2.38772 c 0.4159,2.95369 -1.2908,4.11482 -5.8362,3.9706 l -3.5,-0.11106 z m 25.2669,-12.43074 c -0.6065,-8.60861 -0.5576,-8.54501 -6.0095,-7.81882 -3.478,0.46327 -4.354,0.3497 -3.2574,-0.4223 0.825,-0.58079 3.3,-1.06401 5.5,-1.07382 l 4,-0.0178 -0.039,-46.74748 c -0.032,-38.75142 -0.3235,-48.47722 -1.7031,-56.86008 -1.7314,-10.52082 -3.9988,-17.63992 -6.5754,-20.6455 -1.3661,-1.59347 -1.6678,-1.61281 -3.2217,-0.20651 -2.1495,1.94531 -4.5472,9.50643 -6.4381,20.30264 -1.681,9.59796 -3.3207,95.75137 -2.0967,110.16197 l 0.722,8.5 9.7647,0.32773 9.7646,0.32774 z M 909,815 c -1.2819,-0.82843 -1.24555,-0.9716 0.25,-0.98469 0.9625,-0.008 1.75,0.43469 1.75,0.98469 0,1.21961 -0.11279,1.21961 -2,0 z m 489,-11.5 c 0,-0.275 0.225,-0.5 0.5,-0.5 0.275,0 0.5,0.225 0.5,0.5 0,0.275 -0.225,0.5 -0.5,0.5 -0.275,0 -0.5,-0.225 -0.5,-0.5 z M 1360,765 c 0,-6.78333 0.2222,-12.11114 0.4938,-11.83958 0.7056,0.70563 0.7892,22.88989 0.089,23.59022 C 1360.2622,777.07112 1360,771.78333 1360,765 Z m -45.0394,-2.25 c -0.5795,-3.67563 -1.8788,-33.9786 -1.9295,-45 -0.017,-3.7125 -0.4025,-6.75 -0.8564,-6.75 -0.4538,0 -0.7009,6.73708 -0.549,14.97129 0.1607,8.70941 -0.1215,15.21712 -0.6747,15.55902 -0.5971,0.36901 -0.9248,-19.25071 -0.8807,-52.72129 0.04,-30.68062 0.4351,-52.46007 0.9297,-51.30902 0.4727,1.1 0.9163,12.35 0.9859,25 0.07,12.65 0.4937,27.725 0.9424,33.5 0.7011,9.02214 0.5876,10.77018 -0.8062,12.41957 -1.4776,1.74861 -1.4791,1.86767 -0.017,1.33688 1.3782,-0.50026 1.6956,0.79512 2.2436,9.1569 1.1824,18.04264 1.9488,44.08665 1.2973,44.08665 -0.3554,0 -0.664,-0.1125 -0.6857,-0.25 z M 1360.1579,750 c 0,-1.375 0.227,-1.9375 0.5044,-1.25 0.2774,0.6875 0.2774,1.8125 0,2.5 -0.2774,0.6875 -0.5044,0.125 -0.5044,-1.25 z M 1360,740 c 0,-0.73333 0.3,-1.03333 0.6667,-0.66667 0.3666,0.36667 0.3666,0.96667 0,1.33334 C 1360.3,741.03333 1360,740.73333 1360,740 Z m 0,-5 c 0,-0.73333 0.3,-1.03333 0.6667,-0.66667 0.3666,0.36667 0.3666,0.96667 0,1.33334 C 1360.3,736.03333 1360,735.73333 1360,735 Z m 0,-2.5 c 0,-0.275 0.225,-0.5 0.5,-0.5 0.275,0 0.5,0.225 0.5,0.5 0,0.275 -0.225,0.5 -0.5,0.5 -0.275,0 -0.5,-0.225 -0.5,-0.5 z m 0,-2 c 0,-0.275 0.225,-0.5 0.5,-0.5 0.275,0 0.5,0.225 0.5,0.5 0,0.275 -0.225,0.5 -0.5,0.5 -0.275,0 -0.5,-0.225 -0.5,-0.5 z m 0.1949,-8 c 0.02,-1.65 0.2445,-2.20394 0.4981,-1.23097 0.2535,0.97297 0.2369,2.32297 -0.037,3 -0.2739,0.67703 -0.4813,-0.11903 -0.461,-1.76903 z M 1360,714 c 0,-0.73333 0.3,-1.03333 0.6667,-0.66667 0.3666,0.36667 0.3666,0.96667 0,1.33334 C 1360.3,715.03333 1360,714.73333 1360,714 Z m -36.6638,-20 c 0,-4.125 0.1765,-5.8125 0.3923,-3.75 0.2157,2.0625 0.2157,5.4375 0,7.5 -0.2158,2.0625 -0.3923,0.375 -0.3923,-3.75 z M 1411,649.5 c 0,-0.275 0.225,-0.5 0.5,-0.5 0.275,0 0.5,0.225 0.5,0.5 0,0.275 -0.225,0.5 -0.5,0.5 -0.275,0 -0.5,-0.225 -0.5,-0.5 z m -619,-62 c 0,-0.275 0.225,-0.5 0.5,-0.5 0.275,0 0.5,0.225 0.5,0.5 0,0.275 -0.225,0.5 -0.5,0.5 -0.275,0 -0.5,-0.225 -0.5,-0.5 z m 518.1957,-62.08333 c 0.1077,-32.40417 0.477,-54.19167 0.8207,-48.41667 0.7534,12.66035 0.3643,105.95265 -0.4453,106.76227 -0.3141,0.31409 -0.483,-25.94144 -0.3754,-58.3456 z M 1277.0134,537.5 c -0.4391,-31.07079 0.2219,-87.13475 1.0369,-87.95 0.5996,-0.59981 0.9497,11.95654 0.9497,34.06291 v 35.01291 l 3,2.87418 3,2.87418 V 487.68709 C 1285,462.99081 1285.3394,451 1286.0384,451 c 0.7015,0 0.9975,12.03548 0.9122,37.09434 -0.1244,36.55187 -0.096,37.11573 1.9616,38.55671 1.1483,0.80429 2.0878,1.97684 2.0878,2.60565 0,0.82623 -0.3328,0.8105 -1.2,-0.0567 -3.7902,-3.79017 -4.9693,1.72046 -1.2571,5.87528 l 1.9571,2.19052 -2.3995,-0.74773 c -2.2886,-0.71317 -2.3725,-0.58153 -1.8158,2.84878 0.321,1.97808 0.1632,3.85631 -0.3505,4.17384 -0.5138,0.31754 -0.9342,0.0604 -0.9342,-0.57138 0,-1.18752 -3.9244,-4.87724 -5.25,-4.93604 -0.4125,-0.0183 -0.7816,0.97923 -0.8203,2.21673 -0.039,1.2375 -0.457,3.15 -0.9297,4.25 -0.5731,1.33377 -0.9018,-0.99803 -0.9866,-7 z m 5.3246,-5.22263 -2.838,-2.27474 -0.3307,2.64676 c -0.2426,1.94135 0.4237,3.2518 2.5,4.91689 l 2.8307,2.27012 0.338,-2.64214 c 0.2486,-1.94264 -0.4133,-3.24438 -2.5,-4.91689 z m 0.5642,-7.88152 c -2.9581,-3.1487 -3.9022,-3.0227 -3.9022,0.52074 0,2.02654 0.8392,3.53157 2.75,4.9318 l 2.75,2.0152 0.3265,-2.53594 c 0.2053,-1.59527 -0.5085,-3.42465 -1.9243,-4.9318 z M 1274,543 c 0,-0.55 0.45,-1 1,-1 0.55,0 1,0.45 1,1 0,0.55 -0.45,1 -1,1 -0.55,0 -1,-0.45 -1,-1 z m -70,-42.5 c 0,-0.275 0.225,-0.5 0.5,-0.5 0.275,0 0.5,0.225 0.5,0.5 0,0.275 -0.225,0.5 -0.5,0.5 -0.275,0 -0.5,-0.225 -0.5,-0.5 z m -2,-1 c 0,-0.275 0.225,-0.5 0.5,-0.5 0.275,0 0.5,0.225 0.5,0.5 0,0.275 -0.225,0.5 -0.5,0.5 -0.275,0 -0.5,-0.225 -0.5,-0.5 z m -23.4782,-14.0061 C 1169.1307,479.74737 1167,479.00879 1167,481.5 c 0,0.825 -0.45,1.5 -1,1.5 -0.55,0 -1,-1.40248 -1,-3.11663 0,-2.6243 0.3159,-3.03401 2,-2.59362 1.8274,0.47789 2,0.0307 2,-5.18337 0,-3.13851 -0.54,-6.24638 -1.2,-6.90638 -0.7306,-0.73059 -0.7925,-1.2 -0.1584,-1.2 1.4374,0 1.4562,-9.17255 0.022,-10.91262 -0.8917,-1.0821 -0.8715,-1.51106 0.086,-1.83333 1.8317,-0.61649 1.63,-9.69378 -0.25,-11.25405 -1.969,-1.63409 -1.9246,-3.10017 0.071,-2.33453 1.3836,0.53093 1.5533,-0.99123 1.4248,-12.78138 C 1168.5197,381.2357 1169.1022,321 1170,321 c 0.6553,0 1.0066,20.59616 1.0192,59.75 l 0.019,59.75 11.5758,8.32165 c 6.3666,4.5769 11.7421,8.15525 11.9455,7.95188 0.2034,-0.20338 0.4474,-18.79812 0.5422,-41.32165 0.1774,-42.11621 0.4864,-49.82431 1.9608,-48.91306 0.4696,0.29023 0.5892,21.32522 0.2658,46.74443 l -0.588,46.21675 4.1028,2.5 c 2.2566,1.375 4.1149,2.8375 4.1297,3.25 0.045,1.24666 -1.3371,0.81193 -3.9731,-1.25 -3.5709,-2.79318 -4,-2.53228 -4,2.43191 0,3.80151 0.4349,4.74159 3.0576,6.60909 3.6531,2.60122 3.2387,3.85446 -0.4708,1.42389 L 1197,472.76998 v 4.64874 c 0,4.25283 0.2981,4.8246 3.5,6.71378 4.995,2.94712 4.3448,4.38068 -0.7472,1.64736 -2.336,-1.25392 -4.4735,-2.54254 -4.75,-2.86359 -0.8843,-1.02661 -23.2608,-14.99175 -23.5513,-14.69837 -0.1537,0.15516 -0.4083,2.72255 -0.5659,5.70533 l -0.2865,5.42322 7.9505,4.91036 c 7.4562,4.60512 10.4508,6.75133 9.4004,6.73709 -0.2475,-0.003 -4.4902,-2.47835 -9.4282,-5.5 z m 16.4609,-9.7439 -0.017,-4.25 -11.5962,-7.80323 c -6.3779,-4.29177 -11.7293,-7.66677 -11.892,-7.5 -0.1626,0.16678 -0.4333,2.23107 -0.6013,4.58731 l -0.3056,4.28408 11.4648,7.37149 c 6.3056,4.05432 11.8023,7.41398 12.2148,7.46592 0.4125,0.0519 0.7422,-1.81807 0.7327,-4.15557 z m -1.1707,-16.85494 c -0.7216,-0.41459 -6.037,-4.10052 -11.812,-8.19095 l -10.5,-7.43715 -0.312,4.54263 c -0.3585,5.22036 -0.1103,5.47951 14.7535,15.40601 l 8.5585,5.7156 0.312,-4.64117 c 0.2056,-3.05949 -0.1352,-4.89806 -1,-5.39497 z M 1196,485.5 c 0,-0.275 0.225,-0.5 0.5,-0.5 0.275,0 0.5,0.225 0.5,0.5 0,0.275 -0.225,0.5 -0.5,0.5 -0.275,0 -0.5,-0.225 -0.5,-0.5 z m -364.75835,-5.69253 c -5.36058,-1.1688 -14.68862,-9.53805 -18.56132,-16.65347 -5.84514,-10.73945 -8.25173,-28.65534 -5.55507,-41.35478 2.52267,-11.88006 10.68952,-22.59517 18.9084,-24.80828 8.94895,-2.40971 19.87229,4.59252 26.32751,16.87683 4.75704,9.05266 6.64048,16.7478 6.63103,27.09233 -0.0234,25.60251 -11.94639,42.29325 -27.75055,38.84737 z m 11.6914,-3.77331 c 7.56488,-3.85932 14.08733,-19.61771 14.04959,-33.94412 C 856.92265,419.32489 844.19074,399 829.99018,399 c -10.85807,0 -18.98732,11.00801 -21.22581,28.74236 -1.99849,15.833 3.09313,33.71749 12.30017,43.20471 6.93317,7.14416 14.42172,8.88616 21.86851,5.08709 z m -12.51398,-5.07806 c -7.54285,-2.26625 -15.5178,-14.66325 -17.62904,-27.40422 -1.51645,-9.15146 0.22389,-21.13741 4.0615,-27.97207 6.76281,-12.04433 18.34439,-12.98049 27.79279,-2.24654 5.44167,6.18206 8.36837,14.15495 9.05469,24.66673 1.40609,21.53564 -9.57081,37.07502 -23.27994,32.9561 z m 15.00962,-7.27372 c 4.28695,-5.62048 5.84807,-11.32449 5.93422,-21.68238 0.12543,-15.08183 -4.31831,-25.68383 -13.30296,-31.73859 -4.73426,-3.19041 -5.75354,-2.80929 -1.79115,0.66974 7.33227,6.43782 12.55907,22.30044 11.40839,34.62288 -0.73514,7.87234 -4.06877,16.68342 -8.01075,21.17309 l -3.12852,3.56319 3.17935,-1.6441 c 1.74864,-0.90426 4.31878,-3.13798 5.71142,-4.96383 z m -7.09886,1.37429 c 5.37185,-5.94599 8.13834,-19.2129 6.50177,-31.17973 C 843.13801,421.49312 834.74109,409 828.11123,409 c -11.04913,0 -17.23982,25.43432 -10.67553,43.86017 2.97185,8.34194 10.2972,16.11811 15.19794,16.13324 1.22082,0.004 3.65778,-1.68046 5.69619,-3.93674 z M 811,447 c 0,-0.73333 0.3,-1.03333 0.66667,-0.66667 0.36666,0.36667 0.36666,0.96667 0,1.33334 C 811.3,448.03333 811,447.73333 811,447 Z m -0.84211,-5 c 0,-1.375 0.22698,-1.9375 0.50439,-1.25 0.27741,0.6875 0.27741,1.8125 0,2.5 -0.27741,0.6875 -0.50439,0.125 -0.50439,-1.25 z m 307.73701,27.05734 c -0.9702,-5.51982 0.19,-193.4455 1.2008,-194.50734 0.5394,-0.56666 0.8497,32.72313 0.7689,82.5 -0.1333,82.1511 -0.7776,118.78958 -1.9697,112.00734 z M 1070.5,421.73321 c -7.15,-4.43337 -18.5125,-11.335 -25.25,-15.33695 L 1033,399.11997 v 3.49903 c 0,2.07805 -0.4061,3.24804 -1,2.881 -1.0915,-0.67458 -1.389,-7.77765 -0.3685,-8.79815 0.3473,-0.34732 1.4215,-0.20865 2.3872,0.30815 1.6026,0.8577 1.7588,0.26599 1.7914,-6.78518 0.03,-6.49248 -0.2989,-8.08376 -2.0615,-9.97482 -1.6741,-1.79607 -1.7847,-2.25 -0.5479,-2.25 2.8285,0 3.9255,-11.82042 1.2993,-14 -0.825,-0.68469 -1.5,-1.68793 -1.5,-2.22943 0,-0.5415 0.675,-0.72553 1.5,-0.40894 1.2507,0.47994 1.5,-0.66415 1.5,-6.88454 0,-6.37714 -0.2903,-7.64147 -2,-8.70916 -1.1,-0.68696 -2,-1.6211 -2,-2.07586 0,-0.45477 0.9,-0.5412 2,-0.19207 1.9775,0.62764 2.0016,0.14782 2.1423,-42.68261 0.078,-23.82457 0.2655,-45.11739 0.4161,-47.31739 0.1505,-2.2 0.3114,-10.0375 0.3576,-17.41667 0.046,-7.37916 0.4182,-13.08243 0.8267,-12.67392 0.4086,0.40851 0.5896,28.09836 0.4023,61.533 l -0.3405,60.79024 5.8477,4.45502 c 3.2163,2.45027 7.9853,5.90704 10.5978,7.68172 l 4.75,3.22669 0.125,-33.04804 c 0.069,-18.17642 0.2375,-33.49804 0.375,-34.04804 0.1375,-0.55 0.3063,-11.37656 0.375,-24.05902 0.078,-14.39562 0.4846,-22.83679 1.082,-22.46753 0.6031,0.37268 0.729,21.78742 0.3404,57.89133 l -0.6166,57.29985 4.6459,3.41769 c 5.853,4.30565 14.5562,10.5799 17.1717,12.3793 1.0992,0.75617 1.6938,1.67947 1.3215,2.05178 -1.097,1.09699 -6.7415,-0.53659 -6.3243,-1.83032 0.319,-0.98915 -12.7242,-11.46024 -15.5909,-12.51641 -0.4976,-0.18334 -0.9047,2.75543 -0.9047,6.53058 v 6.86392 l 10.5,7.34442 c 5.775,4.03942 10.5,7.76472 10.5,8.27843 0,1.14608 -0.2853,0.97811 -11.75,-6.91703 l -9.25,-6.37002 v 6.91902 6.91901 l 11,7.08724 c 6.05,3.89798 11,7.5576 11,8.1325 0,0.57489 -0.2144,1.04526 -0.4764,1.04526 -0.2621,0 -5.0615,-3.15051 -10.6656,-7.00113 -5.604,-3.85063 -10.3059,-6.88434 -10.4486,-6.7416 -0.1427,0.14275 -0.3684,3.61664 -0.5015,7.71976 l -0.242,7.46022 11.9171,7.29743 c 10.5065,6.4337 14.431,9.49377 11.7503,9.16226 -0.4583,-0.0567 -6.6833,-3.73036 -13.8333,-8.16373 z m -11.3757,-17.48086 -0.3756,-7.75235 -10.157,-6.75 c -5.5863,-3.7125 -10.4797,-6.75 -10.8743,-6.75 -0.3946,0 -0.7174,3.56591 -0.7174,7.92425 v 7.92425 l 10.7146,6.57575 c 5.8931,3.61666 10.9556,6.57681 11.25,6.5781 0.2945,0.001 0.3664,-3.48621 0.1597,-7.75 z m 0.1012,-18.63576 0.3101,-4.88342 -10.0178,-6.68632 c -5.5098,-3.67747 -10.5144,-6.97824 -11.1213,-7.33503 -0.7221,-0.42455 -1.0457,0.46343 -0.9363,2.56973 0.092,1.77015 0.2603,5.01845 0.3742,7.21845 0.194,3.74444 0.6238,4.27369 6.7274,8.28367 3.5861,2.35602 7.0213,3.97399 7.6337,3.59549 0.6386,-0.39469 0.8349,-0.23737 0.4602,0.36889 -0.3593,0.58139 0.8087,1.9877 2.5955,3.12513 3.6694,2.33582 3.4019,2.75703 3.9743,-6.25659 z m 0.2985,-16.27096 -0.6619,-5.29753 -10.1506,-7.47113 c -5.5829,-4.10912 -10.2419,-7.37995 -10.3533,-7.2685 -0.1115,0.11145 -0.3182,3.35014 -0.4595,7.19708 l -0.2568,6.99445 10.929,7.64553 c 12.2148,8.54497 12.245,8.54002 10.9531,-1.7999 z M 850,302.07342 c -16.775,-9.27256 -34.22488,-18.93241 -38.77752,-21.46631 -4.55263,-2.53391 -8.60263,-4.6077 -9,-4.60842 -0.39736,-7.3e-4 -0.72248,4.49718 -0.72248,9.99535 0,5.49817 -0.42644,10.11126 -0.94765,10.25131 -0.56703,0.15237 -0.83833,-4.20931 -0.67548,-10.85977 0.22914,-9.35734 0.0233,-11.20993 -1.30235,-11.71861 C 797.70853,273.33466 797,272.5505 797,271.9244 c 0,-0.62611 0.675,-0.87936 1.5,-0.56277 2.39494,0.91902 2.16717,-17.94232 -0.25,-20.70245 -1.66667,-1.90315 -1.66667,-1.96792 0,-1.36013 1.58809,0.57914 1.75,-0.23458 1.75,-8.79525 0,-8.4534 -0.21069,-9.54619 -2.02801,-10.51879 -1.1154,-0.59695 -1.75034,-1.53463 -1.41097,-2.08374 0.39797,-0.64392 1.11798,-0.58264 2.02801,0.17262 1.19934,0.99536 1.41097,-0.3982 1.41097,-9.29093 0,-10.18897 -0.0652,-10.49165 -2.5,-11.60101 C 794.85514,205.97688 794.10961,204 796.3,204 c 0.715,0 1.84,0.54 2.5,1.2 0.93333,0.93333 1.2,-11.28889 1.2,-55 0,-36.8 0.3452,-56.2 1,-56.2 0.65482,0 1.00303,19.58918 1.00877,56.75 l 0.009,56.75 15.49633,10 c 8.52299,5.5 17.06904,11.01905 18.99123,12.26456 l 3.49489,2.26456 0.11535,-55.76456 c 0.0634,-30.67051 0.2199,-56.21456 0.34769,-56.76456 0.12778,-0.55 0.30087,-6.5125 0.38465,-13.25 0.10632,-8.550894 0.50318,-12.25 1.31427,-12.25 0.87797,0 0.99646,17.04692 0.48482,69.75 l -0.67712,69.75 15.14011,9.5 c 8.32706,5.225 17.10241,10.625 19.50078,12 2.39836,1.375 4.36714,3.0625 4.37506,3.75 0.0177,1.53914 -1.22099,1.61462 -2.67274,0.16287 -0.78285,-0.78285 -1.2752,-0.78285 -1.75902,0 -1.09687,1.77478 -2.82601,1.23588 -2.31421,-0.72124 0.37308,-1.42666 -2.7158,-3.82586 -14.63337,-11.3661 -8.30845,-5.25675 -15.66877,-9.86953 -16.35627,-10.25064 -0.95869,-0.53144 -1.25,1.40201 -1.25,8.29622 v 8.98913 l 19.5,11.75424 c 10.725,6.46484 19.5,12.12128 19.5,12.56988 0,1.65959 -2.20245,0.67861 -11.24229,-5.00738 C 856.48113,264.82613 843.35548,257 842.62636,257 842.28186,257 842,260.81344 842,265.47432 v 8.47432 l 3.25,1.65557 c 7.50032,3.8207 35.75,20.68909 35.75,21.34696 0,0.39352 -1.36771,0.7155 -3.03934,0.7155 -1.67164,0 -2.57636,-0.28615 -2.01048,-0.63588 0.56588,-0.34973 -5.37892,-4.33158 -13.21065,-8.84854 -7.83174,-4.51697 -15.70203,-9.15001 -17.48953,-10.29566 l -3.25,-2.08299 0.0299,9.8482 0.0299,9.8482 16.72014,9.18433 c 9.19608,5.05138 17.95764,9.73612 19.47014,10.41052 1.5125,0.6744 2.75,1.82895 2.75,2.56567 0,0.73671 -0.1125,1.32432 -0.25,1.3058 -0.1375,-0.0185 -13.975,-7.62033 -30.75,-16.8929 z m -10.83051,-27.85026 c -0.49976,-0.16658 -9.06734,-4.98276 -19.03907,-10.70261 L 802,253.12081 v 10.31828 c 0,10.31273 0.001,10.31888 2.75,11.46048 1.5125,0.62821 9.95,5.14506 18.75,10.03745 l 16,8.89524 0.28907,-9.65311 c 0.15899,-5.30921 -0.11982,-9.7894 -0.61958,-9.95599 z M 840,263.53922 v -8.46078 L 821.47655,244.03922 C 811.28865,237.96765 802.73865,233 802.47655,233 802.21445,233 802,236.99062 802,241.86804 v 8.86804 l 18.75,10.61824 c 10.3125,5.84004 18.8625,10.62442 19,10.63197 0.1375,0.008 0.25,-3.79364 0.25,-8.44707 z m 0,-20.39801 v -8.8588 l -14.68009,-9.3912 c -8.07405,-5.16517 -16.63992,-10.63941 -19.03525,-12.16498 l -4.35515,-2.77378 0.28524,10.1391 0.28525,10.13909 18,10.84861 c 9.9,5.96674 18.3375,10.86484 18.75,10.88468 0.4125,0.0198 0.75,-3.95039 0.75,-8.82272 z"
       id="path1" />
  </g>
</svg>
